<?xml version="1.0" encoding="UTF-8"?>
<svg id="a" data-name="Ebene_1" xmlns="http://www.w3.org/2000/svg" width="563.26" height="73.99" viewBox="0 0 563.26 73.99">
  <g>
    <g>
      <path d="M43.45,16.28c.13.05.29.09.5.13.21.04.46.06.77.08.31.01.57,0,.78-.02.21-.02.37-.06.5-.09.13-.04.22-.1.27-.17.05-.07.08-.16.08-.26l.58-15.28c0-.1-.02-.19-.06-.27-.05-.08-.13-.14-.26-.19-.12-.05-.29-.09-.49-.13-.2-.04-.46-.07-.78-.08-.29-.01-.53,0-.74.02-.21.02-.38.05-.51.09-.13.04-.23.1-.29.17-.06.07-.09.16-.09.26l-.58,15.28c0,.1.02.19.07.27.04.08.13.14.25.19Z" fill="#ffde68"/>
      <path d="M37.31,17.06c.06.07.16.11.29.14.13.02.3.04.52.04.21,0,.47-.03.77-.07.31-.05.56-.1.76-.16.2-.06.36-.12.48-.19.12-.06.19-.14.23-.22.04-.08.05-.17.03-.27l-2.32-15.14c-.02-.1-.06-.18-.11-.25-.06-.06-.16-.11-.29-.13-.13-.02-.3-.03-.51-.03s-.47.02-.78.07c-.28.04-.53.1-.72.16-.2.06-.36.12-.48.19-.13.06-.21.13-.25.22-.04.08-.06.17-.04.27l2.32,15.14c.01.1.05.18.11.25Z" fill="#ffde68"/>
      <path d="M31.77,18.96c.03.09.09.17.16.22.07.05.18.08.31.07.13,0,.3-.03.51-.07.21-.05.45-.12.74-.23.29-.11.53-.22.71-.32.18-.11.32-.2.42-.29.1-.09.16-.17.18-.26.02-.09.01-.18-.02-.27l-5.47-14.32c-.04-.09-.09-.16-.16-.22-.07-.05-.18-.08-.31-.07-.13,0-.3.02-.5.07-.2.04-.45.12-.74.23-.27.1-.5.21-.68.31-.18.1-.33.2-.43.28-.11.09-.17.18-.2.27-.03.09-.02.18.02.27l5.47,14.32Z" fill="#ffde68"/>
      <path d="M26.8,22.18c.05.08.12.14.2.18.08.04.19.04.32.01.13-.03.29-.09.49-.18.19-.09.42-.21.68-.37.26-.17.47-.32.63-.45.16-.14.28-.26.36-.36.08-.11.12-.2.13-.29,0-.09-.02-.18-.08-.26l-8.23-12.95c-.06-.09-.12-.15-.21-.18-.08-.04-.19-.04-.32,0-.13.03-.29.09-.48.17-.19.08-.42.21-.68.38-.25.15-.45.3-.6.44-.16.14-.28.26-.37.37-.09.11-.13.21-.14.3,0,.09.02.18.07.27l8.23,12.96Z" fill="#ffde68"/>
      <path d="M24.24,25.56c.22-.22.39-.41.52-.58.12-.17.22-.31.27-.43.06-.12.08-.22.06-.31-.02-.09-.06-.17-.13-.24l-10.83-10.9c-.07-.07-.15-.11-.24-.13-.09-.02-.2,0-.31.06-.12.06-.26.15-.43.27-.17.12-.36.29-.59.51-.21.21-.37.39-.49.56-.12.17-.22.31-.28.43-.06.12-.09.23-.07.33.01.09.06.17.13.25l10.83,10.9c.07.07.15.11.24.13.09.02.19,0,.31-.06.12-.06.27-.15.44-.27.17-.13.37-.3.58-.51Z" fill="#ffde68"/>
      <path d="M8.41,19.88c-.08-.06-.17-.09-.26-.09-.09,0-.19.04-.3.12-.11.08-.23.19-.38.35-.14.15-.3.36-.48.61-.16.24-.29.46-.38.64-.09.19-.16.35-.19.48-.04.13-.04.24-.01.33.03.09.09.16.17.22l12.69,8.71c.08.06.17.09.26.09.09,0,.19-.04.3-.11.11-.08.23-.2.38-.35.14-.16.3-.36.47-.61.18-.25.31-.47.4-.66.09-.19.15-.35.19-.48.04-.13.04-.24,0-.32-.03-.08-.09-.16-.18-.21l-12.68-8.71Z" fill="#ffde68"/>
      <path d="M2.83,30.78l14.23,5.9c.09.04.18.05.27.03.09-.02.18-.08.27-.17.09-.1.19-.24.3-.42.11-.18.22-.41.34-.69.12-.29.2-.53.25-.73.05-.2.08-.37.08-.5,0-.14-.01-.24-.06-.32-.05-.08-.12-.13-.22-.17l-14.23-5.9c-.09-.04-.18-.05-.27-.03-.09.02-.18.08-.27.17-.09.1-.19.24-.3.42-.11.18-.22.41-.34.7-.11.27-.19.51-.24.71-.05.2-.08.37-.09.51-.01.13,0,.24.06.32.05.08.12.14.21.18Z" fill="#ffde68"/>
      <path d="M.58,39.51c.06.07.14.11.24.13l15.17,2.77c.1.02.19,0,.28-.03.08-.04.16-.11.22-.23.07-.11.13-.27.2-.48.07-.2.13-.45.18-.75.06-.3.09-.56.09-.77,0-.21,0-.38-.02-.51-.02-.13-.06-.23-.13-.3s-.15-.11-.25-.12l-15.17-2.77c-.1-.02-.19-.01-.27.02-.08.04-.16.11-.22.23-.07.12-.13.27-.2.47-.07.2-.13.45-.19.75-.05.29-.08.54-.09.75,0,.21,0,.38.02.52.02.14.06.24.13.3Z" fill="#ffde68"/>
      <path d="M16.33,48.31c.07-.05.13-.14.18-.27.04-.13.08-.29.11-.51.03-.21.04-.47.04-.77,0-.31-.02-.56-.06-.77-.03-.21-.07-.37-.12-.5-.04-.13-.11-.22-.18-.27-.08-.05-.17-.07-.27-.07l-15.44.17c-.1,0-.19.03-.26.08-.07.05-.13.14-.18.27-.04.13-.08.29-.11.5-.03.21-.04.47-.04.78,0,.29.03.54.06.75.03.21.07.37.12.5.05.13.11.22.18.28.08.05.16.08.27.08l15.44-.17c.1,0,.19-.03.26-.08Z" fill="#ffde68"/>
      <path d="M17.58,53.93c.06-.06.1-.16.11-.3.02-.13.02-.3,0-.52-.01-.21-.06-.46-.13-.76-.07-.3-.14-.54-.22-.74-.08-.19-.15-.35-.22-.46-.07-.11-.15-.19-.24-.22-.09-.03-.18-.04-.28-.02l-15.07,3.45c-.1.03-.18.07-.24.13-.06.07-.1.16-.12.29-.01.13-.01.3,0,.51.02.21.06.46.13.77.07.29.14.53.22.72.08.2.15.35.22.46.07.12.15.19.23.23.09.04.18.04.28.02l15.07-3.45c.1-.02.18-.07.24-.13Z" fill="#ffde68"/>
      <path d="M19.64,57.76c-.13-.28-.24-.5-.36-.68-.11-.18-.22-.31-.31-.41-.09-.1-.18-.16-.28-.17-.09-.01-.18,0-.27.04l-14.11,6.36c-.09.04-.16.1-.21.18-.05.08-.07.18-.06.32.01.13.04.3.1.5.06.2.15.44.27.73.12.27.24.49.35.67.11.18.22.31.31.41.09.1.19.16.28.18.09.02.18,0,.27-.03l14.11-6.36c.09-.04.16-.1.21-.18.05-.08.07-.18.06-.31-.01-.13-.05-.3-.1-.51-.06-.2-.15-.44-.27-.72Z" fill="#ffde68"/>
      <path d="M85.75,63.32l-13.96-7.13c-.09-.04-.18-.06-.27-.05-.09.01-.18.06-.28.15-.1.09-.21.22-.33.39-.12.17-.26.39-.4.67-.13.26-.24.49-.3.69-.06.2-.11.36-.13.5-.02.13,0,.25.04.33.04.08.11.15.2.19l13.96,7.13c.09.05.18.06.28.06.09-.01.19-.06.28-.15.1-.09.21-.22.33-.4.12-.17.26-.39.39-.66.14-.27.24-.51.3-.7.06-.2.11-.37.13-.5.02-.13,0-.24-.04-.32-.04-.08-.11-.15-.21-.19Z" fill="#ffde68"/>
      <path d="M88.85,54.92c-.06-.07-.14-.12-.24-.15l-15.12-4.22c-.1-.03-.19-.03-.28,0-.09.03-.17.09-.25.2-.08.11-.16.26-.25.45-.09.19-.17.44-.25.73-.08.28-.13.53-.16.74-.02.21-.03.38-.02.52,0,.14.04.24.1.32.06.07.14.12.24.15l15.11,4.22c.1.03.19.03.28,0,.09-.03.17-.09.24-.2.08-.11.16-.26.25-.45.09-.19.17-.44.25-.73.08-.3.13-.55.16-.75.02-.21.03-.38.02-.51,0-.13-.04-.24-.1-.31Z" fill="#ffde68"/>
      <path d="M90.2,46.57c-.02-.21-.05-.37-.09-.51-.04-.13-.09-.22-.17-.28-.07-.05-.16-.08-.27-.09l-15.69-.89c-.1,0-.19.01-.27.06-.08.05-.15.13-.2.25-.05.12-.1.28-.14.49-.04.2-.08.46-.09.77-.02.29-.02.54,0,.75.02.21.05.38.09.51.04.13.09.23.17.29.08.06.16.09.27.1l15.68.89c.1,0,.19-.02.27-.06.08-.04.15-.13.2-.25.05-.12.1-.29.14-.5.04-.21.07-.46.09-.77.02-.31.01-.56,0-.77Z" fill="#ffde68"/>
      <path d="M73.1,38.98c-.07.06-.12.16-.15.28-.03.13-.04.3-.05.51,0,.21.01.47.05.78.04.29.09.54.15.74.06.2.12.36.18.48.06.12.13.21.22.25.08.04.18.06.28.04l15.59-2.07c.1-.01.19-.05.26-.11.07-.06.12-.15.15-.29.03-.13.04-.3.05-.51,0-.21-.01-.47-.05-.77-.04-.31-.09-.56-.15-.76-.06-.2-.12-.36-.18-.48-.06-.12-.13-.2-.22-.24-.08-.04-.18-.05-.28-.04l-15.59,2.07c-.1.01-.19.05-.26.11Z" fill="#ffde68"/>
      <path d="M71.33,33.56c-.05.07-.08.18-.08.31,0,.13.02.3.06.51.04.2.11.46.22.75.1.27.2.5.3.69.1.18.19.33.28.43.09.11.18.18.27.2.09.03.19.02.28-.01l14.81-5.36c.1-.03.17-.09.23-.16.06-.07.08-.18.08-.31s-.02-.3-.06-.51c-.04-.21-.11-.45-.22-.74-.11-.29-.21-.53-.31-.71-.1-.18-.19-.32-.28-.43-.09-.1-.17-.17-.26-.19-.09-.02-.18-.01-.28.02l-14.81,5.36c-.1.04-.17.09-.23.16Z" fill="#ffde68"/>
      <path d="M83.79,22.83c.09-.05.15-.12.19-.2.04-.08.05-.19.02-.32-.03-.13-.08-.29-.16-.49-.08-.2-.2-.42-.36-.68-.16-.26-.31-.48-.45-.64-.13-.15-.25-.28-.36-.36-.1-.08-.2-.13-.3-.13-.09,0-.18.02-.27.08l-13.45,8.23c-.09.05-.15.12-.19.21-.04.08-.05.19-.02.32.02.13.08.29.16.49.08.19.2.42.36.69.15.25.3.45.43.61.13.16.25.28.36.37.11.09.21.13.3.14.09,0,.19-.02.27-.07l13.45-8.23Z" fill="#ffde68"/>
      <path d="M78.73,15.3c.02-.09.01-.2-.04-.32-.05-.12-.14-.27-.25-.45-.12-.18-.28-.38-.49-.6-.21-.23-.4-.41-.56-.54-.16-.13-.3-.23-.42-.29-.12-.06-.22-.09-.32-.07-.09.01-.18.06-.25.13l-11.64,10.67c-.07.07-.12.15-.15.24-.02.09-.01.2.04.32.05.12.13.27.25.45.11.17.28.38.49.61.2.21.38.39.54.51.16.13.3.23.42.29.12.07.23.09.32.08.09-.01.18-.05.26-.12l11.64-10.67c.08-.07.13-.15.15-.24Z" fill="#ffde68"/>
      <path d="M60.06,20.64c0,.09.03.19.11.3.08.11.19.24.34.38.15.15.35.31.61.49.24.17.45.3.64.39.19.09.35.16.48.19.13.04.24.04.34.01.09-.03.16-.09.23-.17l9.1-12.92c.06-.08.09-.17.09-.26,0-.09-.03-.19-.11-.3-.08-.11-.19-.24-.35-.39-.15-.15-.35-.31-.6-.48-.25-.18-.48-.32-.66-.41-.19-.09-.34-.15-.47-.19-.13-.03-.24-.03-.32,0-.09.04-.16.09-.22.18l-9.1,12.92c-.06.09-.09.17-.09.27Z" fill="#ffde68"/>
      <path d="M54.84,18.1c.02.09.07.18.17.27.1.09.23.2.41.31.17.11.41.23.69.36.27.12.5.2.7.25.2.06.37.09.51.1.14.01.25,0,.33-.06.08-.05.14-.12.18-.22l6.35-14.49c.04-.09.05-.19.04-.28-.01-.09-.07-.18-.17-.27-.1-.09-.24-.19-.42-.31-.18-.11-.41-.23-.69-.35-.28-.12-.53-.21-.73-.27-.2-.05-.37-.08-.5-.09-.13,0-.24.01-.32.06-.08.05-.14.13-.18.22l-6.35,14.49c-.04.09-.05.19-.04.28Z" fill="#ffde68"/>
      <path d="M49.53,16.96c.11.07.27.14.46.21.19.07.45.14.75.2.28.06.53.09.74.1.21,0,.38,0,.52-.02.14-.02.24-.06.31-.12.07-.06.11-.15.14-.25l3.12-15.53c.02-.1.01-.19-.02-.28-.03-.09-.11-.16-.22-.23-.11-.07-.27-.14-.47-.22-.2-.07-.45-.14-.74-.2-.3-.06-.56-.1-.77-.11-.21,0-.38,0-.51.02-.13.02-.23.06-.3.13-.06.07-.11.15-.13.25l-3.13,15.53c-.02.1-.01.2.02.28.03.08.11.16.22.23Z" fill="#ffde68"/>
    </g>
    <path d="M38.66,44.52c0-1.3-1.06-2.36-2.36-2.36s-2.36,1.06-2.36,2.36,1.06,2.36,2.36,2.36,2.36-1.06,2.36-2.36Z" fill="#2d468b"/>
    <path d="M53.91,42.16c-1.31,0-2.36,1.06-2.36,2.36s1.06,2.36,2.36,2.36,2.36-1.06,2.36-2.36-1.06-2.36-2.36-2.36Z" fill="#2d468b"/>
    <path d="M37.71,54.19c1.55,2.44,4.32,4.06,7.48,4.06s5.74-1.52,7.32-3.82c-1.98,1.16-4.48,1.84-7.2,1.84-2.9,0-5.56-.79-7.6-2.09Z" fill="#2d468b"/>
    <path d="M43.98,51.83c.37,0,.67-.3.67-.67s-.3-.67-.67-.67-.67.3-.67.67.3.67.67.67Z" fill="#2d468b"/>
    <path d="M46.23,51.83c.37,0,.67-.3.67-.67s-.3-.67-.67-.67-.67.3-.67.67.3.67.67.67Z" fill="#2d468b"/>
    <path d="M50.53,23.34c-1.74-.44-3.56-.68-5.43-.68-6.74,0-12.77,3.08-16.75,7.9-.44.53-.86,1.09-1.24,1.66,0,.01-.01.01-.01.01-2.34,3.46-3.71,7.64-3.71,12.12s1.37,8.66,3.71,12.13c0,0,.01,0,.01,0,.38.57.8,1.12,1.24,1.66,3.98,4.82,10.01,7.9,16.75,7.9,1.87,0,3.69-.24,5.43-.68,9.36-2.41,16.27-10.9,16.27-21.02s-6.91-18.6-16.27-21.01ZM45.1,63.35c-10.47,0-18.99-8.52-18.99-19,0-.31.03-.6.05-.91.21-.29.52-.59.97-.81h.04s5.36-2.25,10.42-9.22l.57-.79.45.87s1.96,3.78,5.76,5.37l.73.22-.03-.72c.06-.34.2-.67.49-.96l.58-.58.38.72c.09.17.82,1.38,1.77,1.58h.24s-.16-.28-.16-.28c-.29-.74-.29-1.88.75-3.55l.47-.74.52.69s5.04,6.56,13,7.34h.14s.12.08.12.08c0,0,.37.24.68.63.02.35.05.7.05,1.06,0,10.48-8.52,19-19,19Z" fill="#2d468b"/>
  </g>
  <g>
    <path d="M123.79,59.43h-6.15V25.77h6.15v15.96l10.91-15.96h6.39v.77l-11.44,16.2,5.29,7.98c2.26,3.12,3.03,3.99,5,3.99.62,0,1.73-.14,2.98-1.01.72,1.44,1.44,2.88,2.21,4.33-1.78,1.39-4.23,1.92-6.15,1.92-4.57,0-7.5-3.32-9.38-6.64l-5.82-9.09v15.19Z" fill="#2d468b"/>
    <path d="M151.24,24.14c2.21,0,3.94,1.63,3.94,3.75s-1.73,3.7-3.94,3.7-3.85-1.59-3.85-3.7,1.63-3.75,3.85-3.75ZM148.26,59.43v-24.33h5.91v24.33h-5.91Z" fill="#2d468b"/>
    <path d="M161.24,35.1h5.91v4.09c1.54-3.17,4.42-4.62,7.89-4.62,6.06,0,8.99,4.38,8.99,11.4v13.46h-5.91v-13.41c0-4.23-1.78-6.44-4.71-6.44-3.46,0-6.25,2.6-6.25,7.69v12.16h-5.91v-24.33Z" fill="#2d468b"/>
    <path d="M215.23,24.67v34.76h-5.91v-3.65c-1.78,2.64-4.81,4.18-8.37,4.18-7.16,0-11.88-5.67-11.88-12.79s4.47-12.6,11.92-12.6c3.27,0,6.3,1.35,8.32,4.13v-14.04h5.91ZM202.2,55c4.04,0,7.21-2.74,7.21-7.55s-2.98-7.93-7.4-7.93-6.97,3.51-6.97,7.69,2.74,7.79,7.16,7.79Z" fill="#2d468b"/>
    <path d="M245.52,55.29c-3.27,3.65-7.26,4.66-11.01,4.66-8.75,0-13.99-5.67-13.99-12.6s5.63-12.79,13.32-12.79c6.59,0,12.79,4.13,12.79,13.51h-20.19c0,3.85,3.12,6.88,8.37,6.88,3.03,0,5.29-1.11,7.36-2.98l3.37,3.32ZM226.72,44.09h13.85c-.91-3.75-4.23-4.81-6.73-4.81s-5.87,1.06-7.12,4.81Z" fill="#2d468b"/>
    <path d="M257.34,40.48c.82-4.13,4.04-5.91,6.63-5.91.82,0,1.3.14,2.02.34v5.82c-.91-.34-2.02-.48-2.79-.48-2.16,0-5.77,1.2-5.77,7.93v11.25h-5.91v-24.33h5.82v5.38Z" fill="#2d468b"/>
    <path d="M283.74,35.1h6.54v.72l-8.46,10.43,3.65,5.67c1.25,1.83,2.02,2.69,3.8,2.69.53,0,1.92-.14,2.88-.87l2.12,4.09c-2.02,1.97-4.62,2.12-5.82,2.12-3.7,0-5.77-2.02-7.45-4.42l-4.9-7.88v11.78h-5.91V24.67h5.91v20.48l7.64-10.05Z" fill="#2d468b"/>
    <path d="M303.59,40.48c.82-4.13,4.04-5.91,6.63-5.91.82,0,1.3.14,2.02.34v5.82c-.91-.34-2.02-.48-2.79-.48-2.16,0-5.77,1.2-5.77,7.93v11.25h-5.91v-24.33h5.82v5.38Z" fill="#2d468b"/>
    <path d="M319.55,24.14c2.21,0,3.94,1.63,3.94,3.75s-1.73,3.7-3.94,3.7-3.85-1.59-3.85-3.7,1.63-3.75,3.85-3.75ZM316.57,59.43v-24.33h5.91v24.33h-5.91Z" fill="#2d468b"/>
    <path d="M329.55,70.44v-35.34h5.91v3.65c1.73-2.64,4.76-4.18,8.32-4.18,7.21,0,11.92,5.67,11.92,12.79s-4.52,12.6-11.97,12.6c-3.27,0-6.3-1.35-8.27-4.13v14.62h-5.91ZM342.58,39.52c-4.04,0-7.26,2.74-7.26,7.55s3.03,7.93,7.4,7.93,7.02-3.51,7.02-7.69-2.74-7.79-7.16-7.79Z" fill="#2d468b"/>
    <path d="M361.09,70.44v-35.34h5.91v3.65c1.73-2.64,4.76-4.18,8.32-4.18,7.21,0,11.92,5.67,11.92,12.79s-4.52,12.6-11.97,12.6c-3.27,0-6.3-1.35-8.27-4.13v14.62h-5.91ZM374.12,39.52c-4.04,0-7.26,2.74-7.26,7.55s3.03,7.93,7.4,7.93,7.02-3.51,7.02-7.69-2.74-7.79-7.16-7.79Z" fill="#2d468b"/>
    <path d="M415.95,55.29c-3.27,3.65-7.26,4.66-11.01,4.66-8.75,0-13.99-5.67-13.99-12.6s5.63-12.79,13.32-12.79c6.59,0,12.79,4.13,12.79,13.51h-20.19c0,3.85,3.12,6.88,8.37,6.88,3.03,0,5.29-1.11,7.36-2.98l3.37,3.32ZM397.15,44.09h13.85c-.91-3.75-4.23-4.81-6.73-4.81s-5.87,1.06-7.12,4.81Z" fill="#2d468b"/>
    <path d="M450.61,25.24c9.62,0,17.6,7.79,17.6,17.36s-7.98,17.36-17.6,17.36-17.6-7.79-17.6-17.36,7.98-17.36,17.6-17.36ZM450.61,54.38c6.2,0,11.35-5,11.35-11.78s-5.14-11.78-11.35-11.78-11.35,5-11.35,11.78,5.14,11.78,11.35,11.78Z" fill="#2d468b"/>
    <path d="M473.88,59.43V24.67h5.91v34.76h-5.91Z" fill="#2d468b"/>
    <path d="M494.17,35.1h7.26v4.52h-7.26v12.74c0,1.49.62,2.64,2.36,2.64,1.44,0,2.4-1.01,2.4-2.5,0-.53-.1-1.49-.34-2.02h4.86c.43.91.53,2.31.53,2.74,0,3.56-2.45,6.73-7.69,6.73-4.04,0-8.03-1.73-8.03-8.41v-11.92h-3.8v-4.52h4.09l1.06-6.49h4.57v6.49Z" fill="#2d468b"/>
    <path d="M531.43,55.29c-3.27,3.65-7.26,4.66-11.01,4.66-8.75,0-13.99-5.67-13.99-12.6s5.63-12.79,13.32-12.79c6.59,0,12.79,4.13,12.79,13.51h-20.19c0,3.85,3.12,6.88,8.37,6.88,3.03,0,5.29-1.11,7.36-2.98l3.37,3.32ZM512.63,44.09h13.85c-.91-3.75-4.23-4.81-6.73-4.81s-5.87,1.06-7.12,4.81Z" fill="#2d468b"/>
    <path d="M537.44,35.1h5.91v4.09c1.54-3.17,4.42-4.62,7.89-4.62,6.06,0,8.99,4.38,8.99,11.4v13.46h-5.91v-13.41c0-4.23-1.78-6.44-4.71-6.44-3.46,0-6.25,2.6-6.25,7.69v12.16h-5.91v-24.33Z" fill="#2d468b"/>
  </g>
</svg>