<?xml version="1.0" encoding="UTF-8"?>
<svg id="a" data-name="Ebene_1" xmlns="http://www.w3.org/2000/svg" width="90.21" height="66.27" viewBox="0 0 90.21 66.27">
  <g>
    <path d="M46.36,16.18c0,.1-.03.19-.08.26-.05.07-.14.13-.27.17-.13.04-.29.07-.5.09-.21.02-.47.03-.78.02-.3-.01-.56-.04-.77-.08-.21-.04-.38-.08-.5-.13-.12-.05-.21-.11-.25-.19-.05-.08-.07-.17-.07-.27l.58-15.28c0-.1.03-.19.09-.26.06-.07.16-.13.29-.17.13-.04.3-.07.51-.09.21-.02.45-.03.74-.02.31.01.57.04.78.08.2.04.37.08.49.13.12.05.21.11.26.19.05.08.07.17.06.27l-.58,15.28Z" fill="#ffde68"/>
    <path d="M40.36,16.82c-.04.08-.12.15-.23.22-.12.06-.28.12-.48.19-.2.06-.45.12-.76.16-.3.05-.56.07-.77.07-.22,0-.39-.01-.52-.04-.13-.03-.23-.07-.29-.14-.06-.07-.1-.15-.11-.25l-2.32-15.14c-.01-.1,0-.19.04-.27.04-.08.13-.15.25-.22.12-.07.28-.13.48-.19.2-.06.44-.12.72-.16.31-.05.57-.07.78-.07s.38.01.51.03c.13.03.23.07.29.13.06.07.1.15.11.25l2.32,15.14c.01.1,0,.19-.03.27Z" fill="#ffde68"/>
    <path d="M34.8,18.31c-.02.09-.08.17-.18.26-.1.09-.25.18-.42.29-.18.1-.42.21-.71.32-.28.11-.53.18-.74.23-.21.04-.38.07-.51.07-.13,0-.24-.02-.31-.07-.07-.05-.13-.12-.16-.22l-5.47-14.32c-.04-.09-.04-.18-.02-.27.03-.09.09-.18.2-.27.1-.09.25-.18.43-.28.18-.1.41-.21.68-.31.29-.11.54-.19.74-.23.2-.05.37-.07.5-.07.13,0,.24.02.31.07.07.05.13.12.16.22l5.47,14.32c.04.09.04.18.02.27Z" fill="#ffde68"/>
    <path d="M29.6,20.94c0,.09-.04.19-.13.29-.08.1-.2.22-.36.36-.16.14-.37.29-.63.45-.25.16-.48.29-.68.37-.2.09-.36.14-.49.18-.13.03-.24.03-.32-.01-.08-.04-.15-.1-.2-.18l-8.23-12.96c-.05-.08-.08-.17-.07-.27,0-.1.05-.2.14-.3.09-.11.21-.23.37-.37.15-.14.35-.29.6-.44.26-.17.49-.29.68-.38.19-.09.35-.14.48-.17.13-.03.23-.03.32,0,.08.04.15.1.21.18l8.23,12.95c.05.08.08.17.08.26Z" fill="#ffde68"/>
    <path d="M25.09,24.46c.02.09,0,.19-.06.31-.06.12-.15.26-.27.43-.12.17-.3.36-.52.58-.21.21-.41.38-.58.51-.17.13-.32.22-.44.27-.12.06-.22.08-.31.06-.09-.02-.17-.06-.24-.13l-10.83-10.9c-.07-.07-.11-.15-.13-.25-.01-.09.01-.2.07-.33.06-.12.15-.27.28-.43.12-.17.29-.35.49-.56.22-.22.42-.39.59-.51.17-.12.31-.21.43-.27.12-.06.22-.08.31-.06.09.02.17.06.24.13l10.83,10.9c.07.07.12.15.13.24Z" fill="#ffde68"/>
    <path d="M21.27,29.02c.03.08.03.19,0,.32-.04.13-.1.29-.19.48-.09.19-.22.41-.4.66-.17.25-.33.45-.47.61-.15.16-.27.27-.38.35-.11.08-.21.12-.3.11-.09,0-.18-.03-.26-.09l-12.69-8.71c-.08-.06-.14-.13-.17-.22-.03-.09-.03-.2.01-.33.04-.13.1-.29.19-.48.09-.18.22-.4.38-.64.18-.26.34-.46.48-.61.14-.15.27-.27.38-.35.1-.08.21-.12.3-.12.09,0,.18.03.26.09l12.68,8.71c.08.06.14.13.18.21Z" fill="#ffde68"/>
    <path d="M18.51,34.09c.05.08.07.18.06.32,0,.13-.04.3-.08.5-.05.2-.13.44-.25.73-.12.28-.23.51-.34.69-.11.18-.21.32-.3.42-.09.1-.18.16-.27.17-.09.02-.18,0-.27-.03l-14.23-5.9c-.09-.04-.17-.1-.21-.18-.05-.08-.07-.19-.06-.32,0-.14.04-.31.09-.51.05-.2.13-.44.24-.71.12-.29.23-.52.34-.7.11-.18.2-.32.3-.42.09-.1.18-.15.27-.17.09-.02.18,0,.27.03l14.23,5.9c.09.04.17.1.22.17Z" fill="#ffde68"/>
    <path d="M16.82,39.58c.06.06.11.16.13.3.02.13.03.3.02.51,0,.21-.04.46-.09.77-.05.3-.12.55-.18.75-.07.2-.14.36-.2.48-.07.11-.14.19-.22.23-.08.03-.18.05-.28.03l-15.17-2.77c-.1-.02-.18-.06-.24-.13-.07-.07-.11-.17-.13-.3-.02-.13-.03-.31-.02-.52,0-.21.03-.46.09-.75.06-.31.12-.56.19-.75.07-.2.13-.36.2-.47.07-.12.14-.19.22-.23.08-.04.17-.04.27-.02l15.17,2.77c.1.02.18.06.25.12Z" fill="#ffde68"/>
    <path d="M16.29,45.46c.08.05.14.14.18.27.05.13.09.29.12.5.03.2.05.46.06.77,0,.3-.01.56-.04.77-.03.21-.06.38-.11.5-.04.13-.1.21-.18.27-.08.05-.16.08-.26.08l-15.44.17c-.1,0-.19-.03-.27-.08-.08-.05-.14-.15-.18-.28-.05-.13-.09-.3-.12-.5-.03-.2-.05-.46-.06-.75,0-.31.01-.57.04-.78.03-.21.06-.37.11-.5.04-.13.1-.21.18-.27.08-.05.16-.08.26-.08l15.44-.17c.1,0,.19.02.27.07Z" fill="#ffde68"/>
    <path d="M16.89,51.16c.08.03.16.11.24.22.07.11.14.27.22.46.08.19.15.44.22.74.07.3.11.55.13.76.02.21.02.39,0,.52-.01.13-.05.23-.11.3-.06.06-.14.11-.24.13l-15.07,3.45c-.1.02-.19.02-.28-.02-.09-.04-.16-.11-.23-.23-.07-.11-.15-.27-.22-.46-.08-.19-.15-.43-.22-.72-.07-.3-.11-.56-.13-.77-.01-.21-.01-.38,0-.51.01-.13.05-.23.12-.29.06-.06.14-.11.24-.13l15.07-3.45c.1-.02.19-.02.28.02Z" fill="#ffde68"/>
    <path d="M18.7,56.73c.09.02.18.07.28.17.09.1.2.23.31.41.11.17.23.4.36.68.13.28.22.52.27.72.06.2.09.37.1.51.01.13-.01.24-.06.31-.05.08-.12.14-.21.18l-14.11,6.36c-.09.04-.18.05-.27.03-.09-.02-.18-.08-.28-.18-.09-.1-.2-.24-.31-.41-.11-.18-.23-.39-.35-.67-.13-.28-.22-.52-.27-.73-.06-.2-.09-.37-.1-.5-.01-.13,0-.24.06-.32.05-.07.12-.13.21-.18l14.11-6.36c.09-.04.18-.05.27-.04Z" fill="#ffde68"/>
    <path d="M70.12,59.09c-.04-.08-.06-.19-.04-.33.02-.14.06-.3.13-.5.06-.2.17-.43.3-.69.14-.28.27-.5.4-.67.12-.17.23-.3.33-.39.1-.09.19-.14.28-.15.09,0,.18,0,.27.05l13.96,7.13c.09.04.16.11.21.19.04.08.06.19.04.32-.02.13-.06.3-.13.5-.07.2-.17.43-.3.7-.14.27-.27.49-.39.66-.12.18-.23.31-.33.4-.1.09-.19.14-.28.15-.09,0-.18-.01-.28-.06l-13.96-7.13c-.09-.05-.16-.11-.2-.19Z" fill="#ffde68"/>
    <path d="M72.39,53.73c-.06-.07-.09-.18-.1-.32-.01-.14,0-.31.02-.52.02-.21.08-.45.16-.74.08-.3.17-.54.25-.73.09-.19.17-.34.25-.45.08-.11.16-.18.25-.2.09-.03.18-.03.28,0l15.12,4.22c.1.03.18.08.24.15.06.07.1.18.1.31.01.13,0,.3-.02.51-.02.21-.08.46-.16.75-.08.29-.17.54-.25.73-.09.19-.17.34-.25.45-.07.11-.16.18-.24.2-.09.03-.18.03-.28,0l-15.11-4.22c-.1-.03-.18-.08-.24-.15Z" fill="#ffde68"/>
    <path d="M73.54,48.16c-.07-.06-.13-.16-.17-.29-.04-.13-.07-.3-.09-.51-.02-.21-.03-.46,0-.75.02-.31.05-.57.09-.77.04-.21.09-.37.14-.49.05-.12.12-.21.2-.25.08-.05.17-.07.27-.06l15.69.89c.1,0,.19.04.27.09.07.06.13.15.17.28.04.13.07.3.09.51.02.21.02.46,0,.77-.02.3-.05.56-.09.77-.04.21-.09.37-.14.5-.05.12-.12.21-.2.25-.08.05-.17.07-.27.06l-15.69-.89c-.1,0-.19-.04-.27-.1Z" fill="#ffde68"/>
    <path d="M73.51,42.25c-.08-.04-.16-.13-.22-.25-.07-.12-.12-.29-.18-.48-.06-.2-.11-.44-.15-.74-.04-.31-.06-.57-.05-.78,0-.21.02-.38.05-.51.03-.13.08-.22.15-.28.07-.06.16-.1.26-.11l15.59-2.07c.1-.01.2,0,.28.04.08.05.15.13.22.24.06.12.12.28.18.48.06.2.11.45.15.76.04.3.06.56.05.77,0,.21-.02.38-.05.51-.03.13-.08.23-.15.29-.07.06-.16.1-.26.11l-15.59,2.07c-.1.01-.2,0-.28-.04Z" fill="#ffde68"/>
    <path d="M72.37,36.67c-.09-.02-.18-.09-.27-.2-.09-.11-.18-.25-.28-.43-.1-.18-.2-.41-.3-.69-.11-.29-.18-.54-.22-.75-.04-.21-.06-.37-.06-.51,0-.13.03-.23.08-.31.06-.07.13-.13.23-.16l14.81-5.36c.1-.04.19-.04.28-.02.09.02.18.09.26.19.08.1.18.25.28.43.1.18.2.42.31.71.1.29.18.53.22.74.04.21.06.38.06.51s-.03.24-.08.31c-.05.07-.13.13-.23.16l-14.81,5.36c-.1.03-.19.04-.28.01Z" fill="#ffde68"/>
    <path d="M70.07,31.35c-.1,0-.2-.05-.3-.14-.11-.09-.23-.21-.36-.37-.13-.16-.28-.36-.43-.61-.16-.27-.28-.5-.36-.69-.08-.19-.13-.35-.16-.49-.03-.13-.02-.24.02-.32.04-.08.11-.15.19-.21l13.45-8.23c.09-.05.18-.08.27-.08.09,0,.19.05.3.13.1.08.22.21.36.36.14.16.28.37.45.64.16.26.28.48.36.68.08.2.14.36.16.49.03.13.02.24-.02.32-.04.08-.11.15-.19.2l-13.45,8.23c-.09.05-.18.08-.27.07Z" fill="#ffde68"/>
    <path d="M66.68,26.55c-.1.01-.2-.02-.32-.08-.12-.06-.26-.16-.42-.29-.17-.13-.34-.3-.54-.51-.21-.23-.37-.43-.49-.61-.12-.17-.2-.32-.25-.45-.05-.12-.06-.23-.04-.32.02-.09.07-.17.15-.24l11.64-10.67c.08-.07.16-.11.25-.13.09-.01.2,0,.32.07.12.06.26.16.42.29.16.13.35.31.56.54.2.22.37.42.49.6.12.18.2.33.25.45.05.12.06.23.04.32-.02.09-.07.17-.15.24l-11.64,10.67c-.08.07-.16.11-.26.12Z" fill="#ffde68"/>
    <path d="M62.57,22.63c-.09.03-.2.03-.34-.01-.13-.04-.29-.1-.48-.19-.19-.09-.4-.22-.64-.39-.25-.18-.46-.34-.61-.49-.15-.14-.26-.27-.34-.38-.08-.11-.11-.21-.11-.3,0-.09.04-.18.09-.27l9.1-12.92c.06-.08.13-.14.22-.18.09-.03.19-.03.32,0,.13.04.29.1.47.19.19.09.41.23.66.41.25.17.45.34.6.48.16.15.27.28.35.39.08.11.11.21.11.3,0,.09-.03.18-.09.26l-9.1,12.92c-.06.08-.14.14-.23.17Z" fill="#ffde68"/>
    <path d="M57.65,19.55c-.08.05-.19.07-.33.06-.14,0-.31-.04-.51-.1-.2-.05-.44-.14-.7-.25-.28-.13-.52-.25-.69-.36-.18-.11-.31-.22-.41-.31-.1-.09-.15-.18-.17-.27-.01-.09,0-.18.04-.28l6.35-14.49c.04-.09.1-.17.18-.22.08-.05.18-.07.32-.06.13,0,.3.04.5.09.2.06.44.14.73.27.28.12.51.24.69.35.18.11.32.22.42.31.1.09.15.18.17.27.01.09,0,.19-.04.28l-6.35,14.49c-.04.1-.1.17-.18.22Z" fill="#ffde68"/>
    <path d="M52.32,17.55c-.07.07-.18.11-.31.12-.14.02-.31.02-.52.02-.21,0-.46-.04-.74-.1-.31-.06-.56-.13-.75-.2-.2-.07-.35-.14-.46-.21-.11-.07-.19-.15-.22-.23-.03-.09-.04-.18-.02-.28l3.13-15.53c.02-.1.06-.18.13-.25.07-.07.16-.11.3-.13.13-.02.3-.02.51-.02.21.01.47.05.77.11.3.06.55.13.74.2.2.08.36.14.47.22.12.07.19.15.22.23.03.09.04.18.02.28l-3.12,15.53c-.02.1-.07.18-.14.25Z" fill="#ffde68"/>
  </g>
  <path d="M45.1,22.88c-11.97,0-21.7,9.73-21.7,21.69s9.73,21.7,21.7,21.7,21.7-9.73,21.7-21.7-9.74-21.69-21.7-21.69Z" fill="#ffefd9"/>
  <g>
    <path d="M45.1,25.49c-10.28,0-18.69,8.17-19.07,18.36.21-.33.55-.73,1.1-1h.04s5.36-2.25,10.42-9.22l.57-.79.45.87s1.96,3.78,5.76,5.37l.73.22-.03-.72c.06-.34.2-.67.49-.96l.58-.58.38.72c.09.17.82,1.38,1.77,1.58h.24s-.16-.28-.16-.28c-.29-.74-.29-1.88.75-3.55l.47-.74.52.69s5.04,6.56,13,7.34h.14s.12.08.12.08c0,.01.46.28.79.76-.49-10.09-8.85-18.15-19.06-18.15Z" fill="#2d468b" fill-rule="evenodd"/>
    <path d="M38.66,44.75c0-1.3-1.06-2.36-2.36-2.36s-2.36,1.06-2.36,2.36,1.06,2.36,2.36,2.36,2.36-1.06,2.36-2.36Z" fill="#2d468b" fill-rule="evenodd"/>
    <path d="M53.91,42.39c-1.31,0-2.36,1.06-2.36,2.36s1.06,2.36,2.36,2.36,2.36-1.06,2.36-2.36-1.06-2.36-2.36-2.36Z" fill="#2d468b" fill-rule="evenodd"/>
    <path d="M37.71,54.42c1.55,2.44,4.32,4.06,7.48,4.06s5.74-1.52,7.32-3.82c-1.98,1.16-4.48,1.84-7.2,1.84-2.9,0-5.56-.79-7.6-2.09Z" fill="#2d468b" fill-rule="evenodd"/>
    <path d="M44.65,51.38c0-.37-.3-.67-.67-.67s-.67.3-.67.67.3.67.67.67.67-.3.67-.67Z" fill="#2d468b" fill-rule="evenodd"/>
    <path d="M46.9,51.38c0-.37-.3-.67-.67-.67s-.67.3-.67.67.3.67.67.67.67-.3.67-.67Z" fill="#2d468b" fill-rule="evenodd"/>
  </g>
</svg>