<?xml version="1.0" encoding="UTF-8"?>
<svg id="a" data-name="Ebene_1" xmlns="http://www.w3.org/2000/svg" width="90.21" height="66.27" viewBox="0 0 90.21 66.27">
  <path d="M43.45,16.29c.13.05.29.09.5.13.21.04.46.06.77.08.31.01.57,0,.78-.02.21-.02.37-.06.5-.09.13-.04.22-.1.27-.17.05-.07.08-.16.08-.26l.58-15.28c0-.1-.02-.19-.06-.27-.05-.08-.13-.14-.26-.19-.12-.05-.29-.09-.49-.13-.2-.04-.46-.07-.78-.08-.29-.01-.53,0-.74.02-.21.02-.38.05-.51.09-.13.04-.23.1-.29.17-.06.07-.09.16-.09.26l-.58,15.28c0,.1.02.19.07.27.04.08.13.14.25.19Z"/>
  <path d="M37.31,17.07c.06.07.16.11.29.14.13.02.3.04.52.04.21,0,.47-.03.77-.07.31-.05.56-.1.76-.16.2-.06.36-.12.48-.19.12-.06.19-.14.23-.22.04-.08.05-.17.03-.27l-2.32-15.14c-.02-.1-.06-.18-.11-.25-.06-.06-.16-.11-.29-.13-.13-.02-.3-.03-.51-.03s-.47.02-.78.07c-.28.04-.53.1-.72.16-.2.06-.36.12-.48.19-.13.06-.21.13-.25.22-.04.08-.06.17-.04.27l2.32,15.14c.01.1.05.18.11.25Z"/>
  <path d="M31.77,18.97c.03.09.09.17.16.22.07.05.18.08.31.07.13,0,.3-.03.51-.07.21-.05.45-.12.74-.23.29-.11.53-.22.71-.32.18-.11.32-.2.42-.29.1-.09.16-.17.18-.26.02-.09.01-.18-.02-.27l-5.47-14.32c-.04-.09-.09-.16-.16-.22-.07-.05-.18-.08-.31-.07-.13,0-.3.02-.5.07-.2.04-.45.12-.74.23-.27.1-.5.21-.68.31-.18.1-.33.2-.43.28-.11.09-.17.18-.2.27-.03.09-.02.18.02.27l5.47,14.32Z"/>
  <path d="M26.8,22.2c.05.08.12.14.2.18.08.04.19.04.32.01.13-.03.29-.09.49-.18.19-.09.42-.21.68-.37.26-.17.47-.32.63-.45.16-.14.28-.26.36-.36.08-.11.12-.2.13-.29,0-.09-.02-.18-.08-.26l-8.23-12.95c-.06-.09-.12-.15-.21-.18-.08-.04-.19-.04-.32,0-.13.03-.29.09-.48.17-.19.08-.42.21-.68.38-.25.15-.45.3-.6.44-.16.14-.28.26-.37.37-.09.11-.13.21-.14.3,0,.09.02.18.07.27l8.23,12.96Z"/>
  <path d="M24.24,25.58c.22-.22.39-.41.52-.58.12-.17.22-.31.27-.43.06-.12.08-.22.06-.31-.02-.09-.06-.17-.13-.24l-10.83-10.9c-.07-.07-.15-.11-.24-.13-.09-.02-.2,0-.31.06-.12.06-.26.15-.43.27-.17.12-.36.29-.59.51-.21.21-.37.39-.49.56-.12.17-.22.31-.28.43-.06.12-.09.23-.07.33.01.09.06.17.13.25l10.83,10.9c.07.07.15.11.24.13.09.02.19,0,.31-.06.12-.06.27-.15.44-.27.17-.13.37-.3.58-.51Z"/>
  <path d="M8.41,19.89c-.08-.06-.17-.09-.26-.09-.09,0-.19.04-.3.12-.11.08-.23.19-.38.35-.14.15-.3.36-.48.61-.16.24-.29.46-.38.64-.09.19-.16.35-.19.48-.04.13-.04.24-.01.33.03.09.09.16.17.22l12.69,8.71c.08.06.17.09.26.09.09,0,.19-.04.3-.11.11-.08.23-.2.38-.35.14-.16.3-.36.47-.61.18-.25.31-.47.4-.66.09-.19.15-.35.19-.48.04-.13.04-.24,0-.32-.03-.08-.09-.16-.18-.21l-12.68-8.71Z"/>
  <path d="M2.83,30.79l14.23,5.9c.09.04.18.05.27.03.09-.02.18-.08.27-.17.09-.1.19-.24.3-.42.11-.18.22-.41.34-.69.12-.29.2-.53.25-.73.05-.2.08-.37.08-.5,0-.14-.01-.24-.06-.32-.05-.08-.12-.13-.22-.17l-14.23-5.9c-.09-.04-.18-.05-.27-.03-.09.02-.18.08-.27.17-.09.1-.19.24-.3.42-.11.18-.22.41-.34.7-.11.27-.19.51-.24.71-.05.2-.08.37-.09.51-.01.13,0,.24.06.32.05.08.12.14.21.18Z"/>
  <path d="M.58,39.52c.06.07.14.11.24.13l15.17,2.77c.1.02.19,0,.28-.03.08-.04.16-.11.22-.23.07-.11.13-.27.2-.48.07-.2.13-.45.18-.75.06-.3.09-.56.09-.77,0-.21,0-.38-.02-.51-.02-.13-.06-.23-.13-.3s-.15-.11-.25-.12l-15.17-2.77c-.1-.02-.19-.01-.27.02-.08.04-.16.11-.22.23-.07.12-.13.27-.2.47-.07.2-.13.45-.19.75-.05.29-.08.54-.09.75,0,.21,0,.38.02.52.02.14.06.24.13.3Z"/>
  <path d="M16.33,48.32c.07-.05.13-.14.18-.27.04-.13.08-.29.11-.51.03-.21.04-.47.04-.77,0-.31-.02-.56-.06-.77-.03-.21-.07-.37-.12-.5-.04-.13-.11-.22-.18-.27-.08-.05-.17-.07-.27-.07l-15.44.17c-.1,0-.19.03-.26.08-.07.05-.13.14-.18.27-.04.13-.08.29-.11.5-.03.21-.04.47-.04.78,0,.29.03.54.06.75.03.21.07.37.12.5.05.13.11.22.18.28.08.05.16.08.27.08l15.44-.17c.1,0,.19-.03.26-.08Z"/>
  <path d="M17.58,53.94c.06-.06.1-.16.11-.3.02-.13.02-.3,0-.52-.01-.21-.06-.46-.13-.76-.07-.3-.14-.54-.22-.74-.08-.19-.15-.35-.22-.46-.07-.11-.15-.19-.24-.22-.09-.03-.18-.04-.28-.02l-15.07,3.45c-.1.03-.18.07-.24.13-.06.07-.1.16-.12.29-.01.13-.01.3,0,.51.02.21.06.46.13.77.07.29.14.53.22.72.08.2.15.35.22.46.07.12.15.19.23.23.09.04.18.04.28.02l15.07-3.45c.1-.02.18-.07.24-.13Z"/>
  <path d="M19.64,57.77c-.13-.28-.24-.5-.36-.68-.11-.18-.22-.31-.31-.41-.09-.1-.18-.16-.28-.17-.09-.01-.18,0-.27.04l-14.11,6.36c-.09.04-.16.1-.21.18-.05.08-.07.18-.06.32.01.13.04.3.1.5.06.2.15.44.27.73.12.27.24.49.35.67.11.18.22.31.31.41.09.1.19.16.28.18.09.02.18,0,.27-.03l14.11-6.36c.09-.04.16-.1.21-.18.05-.08.07-.18.06-.31-.01-.13-.05-.3-.1-.51-.06-.2-.15-.44-.27-.72Z"/>
  <path d="M85.75,63.33l-13.96-7.13c-.09-.04-.18-.06-.27-.05-.09.01-.18.06-.28.15-.1.09-.21.22-.33.39-.12.17-.26.39-.4.67-.13.26-.24.49-.3.69-.06.2-.11.36-.13.5-.02.13,0,.25.04.33.04.08.11.15.2.19l13.96,7.13c.09.05.18.06.28.06.09-.01.19-.06.28-.15.1-.09.21-.22.33-.4.12-.17.26-.39.39-.66.14-.27.24-.51.3-.7.06-.2.11-.37.13-.5.02-.13,0-.24-.04-.32-.04-.08-.11-.15-.21-.19Z"/>
  <path d="M88.85,54.93c-.06-.07-.14-.12-.24-.15l-15.12-4.22c-.1-.03-.19-.03-.28,0-.09.03-.17.09-.25.2-.08.11-.16.26-.25.45-.09.19-.17.44-.25.73-.08.28-.13.53-.16.74-.02.21-.03.38-.02.52,0,.14.04.24.1.32.06.07.14.12.24.15l15.11,4.22c.1.03.19.03.28,0,.09-.03.17-.09.24-.2.08-.11.16-.26.25-.45.09-.19.17-.44.25-.73.08-.3.13-.55.16-.75.02-.21.03-.38.02-.51,0-.13-.04-.24-.1-.31Z"/>
  <path d="M90.2,46.59c-.02-.21-.05-.37-.09-.51-.04-.13-.09-.22-.17-.28-.07-.05-.16-.08-.27-.09l-15.69-.89c-.1,0-.19.01-.27.06-.08.05-.15.13-.2.25-.05.12-.1.28-.14.49-.04.2-.08.46-.09.77-.02.29-.02.54,0,.75.02.21.05.38.09.51.04.13.09.23.17.29.08.06.16.09.27.1l15.68.89c.1,0,.19-.02.27-.06.08-.04.15-.13.2-.25.05-.12.1-.29.14-.5.04-.21.07-.46.09-.77.02-.31.01-.56,0-.77Z"/>
  <path d="M73.1,39c-.07.06-.12.16-.15.28-.03.13-.04.3-.05.51,0,.21.01.47.05.78.04.29.09.54.15.74.06.2.12.36.18.48.06.12.13.21.22.25.08.04.18.06.28.04l15.59-2.07c.1-.01.19-.05.26-.11.07-.06.12-.15.15-.29.03-.13.04-.3.05-.51,0-.21-.01-.47-.05-.77-.04-.31-.09-.56-.15-.76-.06-.2-.12-.36-.18-.48-.06-.12-.13-.2-.22-.24-.08-.04-.18-.05-.28-.04l-15.59,2.07c-.1.01-.19.05-.26.11Z"/>
  <path d="M71.33,33.58c-.05.07-.08.18-.08.31,0,.13.02.3.06.51.04.2.11.46.22.75.1.27.2.5.3.69.1.18.19.33.28.43.09.11.18.18.27.2.09.03.19.02.28-.01l14.81-5.36c.1-.03.17-.09.23-.16.06-.07.08-.18.08-.31s-.02-.3-.06-.51c-.04-.21-.11-.45-.22-.74-.11-.29-.21-.53-.31-.71-.1-.18-.19-.32-.28-.43-.09-.1-.17-.17-.26-.19-.09-.02-.18-.01-.28.02l-14.81,5.36c-.1.04-.17.09-.23.16Z"/>
  <path d="M83.79,22.84c.09-.05.15-.12.19-.2.04-.08.05-.19.02-.32-.03-.13-.08-.29-.16-.49-.08-.2-.2-.42-.36-.68-.16-.26-.31-.48-.45-.64-.13-.15-.25-.28-.36-.36-.1-.08-.2-.13-.3-.13-.09,0-.18.02-.27.08l-13.45,8.23c-.09.05-.15.12-.19.21-.04.08-.05.19-.02.32.02.13.08.29.16.49.08.19.2.42.36.69.15.25.3.45.43.61.13.16.25.28.36.37.11.09.21.13.3.14.09,0,.19-.02.27-.07l13.45-8.23Z"/>
  <path d="M78.73,15.32c.02-.09.01-.2-.04-.32-.05-.12-.14-.27-.25-.45-.12-.18-.28-.38-.49-.6-.21-.23-.4-.41-.56-.54-.16-.13-.3-.23-.42-.29-.12-.06-.22-.09-.32-.07-.09.01-.18.06-.25.13l-11.64,10.67c-.07.07-.12.15-.15.24-.02.09-.01.2.04.32.05.12.13.27.25.45.11.17.28.38.49.61.2.21.38.39.54.51.16.13.3.23.42.29.12.07.23.09.32.08.09-.01.18-.05.26-.12l11.64-10.67c.08-.07.13-.15.15-.24Z"/>
  <path d="M60.06,20.65c0,.09.03.19.11.3.08.11.19.24.34.38.15.15.35.31.61.49.24.17.45.3.64.39.19.09.35.16.48.19.13.04.24.04.34.01.09-.03.16-.09.23-.17l9.1-12.92c.06-.08.09-.17.09-.26,0-.09-.03-.19-.11-.3-.08-.11-.19-.24-.35-.39-.15-.15-.35-.31-.6-.48-.25-.18-.48-.32-.66-.41-.19-.09-.34-.15-.47-.19-.13-.03-.24-.03-.32,0-.09.04-.16.09-.22.18l-9.1,12.92c-.06.09-.09.17-.09.27Z"/>
  <path d="M54.84,18.11c.02.09.07.18.17.27.1.09.23.2.41.31.17.11.41.23.69.36.27.12.5.2.7.25.2.06.37.09.51.1.14.01.25,0,.33-.06.08-.05.14-.12.18-.22l6.35-14.49c.04-.09.05-.19.04-.28-.01-.09-.07-.18-.17-.27-.1-.09-.24-.19-.42-.31-.18-.11-.41-.23-.69-.35-.28-.12-.53-.21-.73-.27-.2-.05-.37-.08-.5-.09-.13,0-.24.01-.32.06-.08.05-.14.13-.18.22l-6.35,14.49c-.04.09-.05.19-.04.28Z"/>
  <path d="M49.53,16.97c.11.07.27.14.46.21.19.07.45.14.75.2.28.06.53.09.74.1.21,0,.38,0,.52-.02.14-.02.24-.06.31-.12.07-.06.11-.15.14-.25l3.12-15.53c.02-.1.01-.19-.02-.28-.03-.09-.11-.16-.22-.23-.11-.07-.27-.14-.47-.22-.2-.07-.45-.14-.74-.2-.3-.06-.56-.1-.77-.11-.21,0-.38,0-.51.02-.13.02-.23.06-.3.13-.06.07-.11.15-.13.25l-3.13,15.53c-.02.1-.01.2.02.28.03.08.11.16.22.23Z"/>
  <path d="M38.66,44.54c0-1.3-1.06-2.36-2.36-2.36s-2.36,1.06-2.36,2.36,1.06,2.36,2.36,2.36,2.36-1.06,2.36-2.36Z"/>
  <path d="M53.91,42.17c-1.31,0-2.36,1.06-2.36,2.36s1.06,2.36,2.36,2.36,2.36-1.06,2.36-2.36-1.06-2.36-2.36-2.36Z"/>
  <path d="M37.71,54.21c1.55,2.44,4.32,4.06,7.48,4.06s5.74-1.52,7.32-3.82c-1.98,1.16-4.48,1.84-7.2,1.84-2.9,0-5.56-.79-7.6-2.09Z"/>
  <path d="M43.98,51.84c.37,0,.67-.3.67-.67s-.3-.67-.67-.67-.67.3-.67.67.3.67.67.67Z"/>
  <path d="M46.23,51.84c.37,0,.67-.3.67-.67s-.3-.67-.67-.67-.67.3-.67.67.3.67.67.67Z"/>
  <path d="M50.53,23.35c-1.74-.44-3.56-.68-5.43-.68-6.74,0-12.77,3.08-16.75,7.9-.44.53-.86,1.09-1.24,1.66,0,.01-.01.01-.01.01-2.34,3.46-3.71,7.64-3.71,12.12s1.37,8.66,3.71,12.13c0,0,.01,0,.01,0,.38.57.8,1.12,1.24,1.66,3.98,4.82,10.01,7.9,16.75,7.9,1.87,0,3.69-.24,5.43-.68,9.36-2.41,16.27-10.9,16.27-21.02s-6.91-18.6-16.27-21.01ZM45.1,63.36c-10.47,0-18.99-8.52-18.99-19,0-.31.03-.6.05-.91.21-.29.52-.59.97-.81h.04s5.36-2.25,10.42-9.22l.57-.79.45.87s1.96,3.78,5.76,5.37l.73.22-.03-.72c.06-.34.2-.67.49-.96l.58-.58.38.72c.09.17.82,1.38,1.77,1.58h.24s-.16-.28-.16-.28c-.29-.74-.29-1.88.75-3.55l.47-.74.52.69s5.04,6.56,13,7.34h.14s.12.08.12.08c0,0,.37.24.68.63.02.35.05.7.05,1.06,0,10.48-8.52,19-19,19Z"/>
</svg>