<?xml version="1.0" encoding="UTF-8"?>
<svg id="a" data-name="Ebene_1" xmlns="http://www.w3.org/2000/svg" width="46.56" height="46.56" viewBox="0 0 46.56 46.56">
  <polygon points="23.17 39.95 13.7 36.5 8.65 27.77 10.4 17.84 18.13 11.36 28.21 11.36 35.94 17.84 37.69 27.77 32.65 36.5 23.17 39.95" fill="#c8d7fa"/>
  <g>
    <path d="M23.28,0C10.44,0,0,10.44,0,23.28s10.44,23.28,23.28,23.28,23.28-10.44,23.28-23.28S36.12,0,23.28,0ZM23.28,45.21c-12.09,0-21.93-9.84-21.93-21.93S11.18,1.34,23.28,1.34s21.93,9.84,21.93,21.93-9.84,21.93-21.93,21.93Z" fill="#2d468b"/>
    <path d="M36.79,7.22l-7.27,3.93c-1.09-.29-2.21-.52-3.32-.66-2.92-.37-5.89-.23-8.84.43l-6.84-4.21-3.77,5.76,2.63,5.23-2.12,10.05,5.73,9.42,10.11,3.68,9.84-3.84,5.65-9.16-1.78-10.1,2.99-4.38-3.01-6.17ZM26.03,11.83c.63.08,1.26.19,1.89.33l-4.66,3.06-4.37-3.21c2.39-.41,4.78-.49,7.14-.19ZM25.89,33.93l-2.7,1.14-2.71-1.15h5.41ZM27.97,32.59h-4.01s0-1.12,0-1.12l2.52-.92-.03-3.53-6.51-.06.02,3.41,2.67,1.16v1.04s-4.27-.01-4.27-.01l.04-6.5,4.93-3.76,4.64,3.78v6.51ZM23.2,30.32l-1.9-.83v-1.17s3.82.03,3.82.03v1.26s-1.92.71-1.92.71ZM37.18,27.6l-5.14,8.34-8.95,3.49-9.19-3.35-5.2-8.56,1.54-7.26.56-2.74-2.5-4.96,2.63-4.02,5.94,3.66,5.73,4.21.07,4.71-5.6,4.28-.06,8.51h.02s6.16,2.62,6.16,2.62l6.13-2.59v-.02s0-8.49,0-8.49l-5.3-4.31-.07-4.75,5.86-3.85,6.39-3.45,2.06,4.21-2.86,4.18,1.79,10.13Z" fill="#2d468b"/>
    <path d="M19.24,21.31c0-.88-.74-1.6-1.66-1.6s-1.66.72-1.66,1.6.74,1.6,1.66,1.6,1.66-.72,1.66-1.6Z" fill="#2d468b"/>
    <path d="M28.92,19.67c-.92,0-1.66.72-1.66,1.6s.74,1.6,1.66,1.6,1.66-.72,1.66-1.6-.74-1.6-1.66-1.6Z" fill="#2d468b"/>
  </g>
</svg>