<?xml version="1.0" encoding="UTF-8"?>
<svg id="a" data-name="Ebene_1" xmlns="http://www.w3.org/2000/svg" width="46.56" height="46.56" viewBox="0 0 46.56 46.56">
  <polygon points="29.97 23.66 24.4 33.19 13.36 33.13 7.89 23.53 13.47 14 24.51 14.06 29.97 23.66" fill="#76cadd"/>
  <g>
    <path d="M23.28,0C10.44,0,0,10.44,0,23.28s10.44,23.28,23.28,23.28,23.28-10.44,23.28-23.28S36.12,0,23.28,0ZM23.28,45.21c-12.09,0-21.93-9.84-21.93-21.93S11.18,1.34,23.28,1.34s21.93,9.84,21.93,21.93-9.84,21.93-21.93,21.93Z" fill="#2d468b"/>
    <path d="M24.6,13.44h-1.34c-.07-1.43.13-3.18,1.28-4.29.08-.07.16-.15.25-.21l1.25-1-1.59-.2c-.25-.03-.51-.04-.75-.04-3.54.05-6.13,3.55-7.43,5.79l-3.52.02-5.4,9.03c-.09-.08-.19-.14-.28-.22l-.88,1.02c.29.25.58.48.89.7l5.74,10.39,2.23-.11.22-.03c.61.86,2.41,2.83,6.96,4.59.12.05.35.14.59.14.22,0,.45-.07.61-.32.39-.6-.23-1.13-.81-1.64-.16-.14-.55-.7-.68-2.91l2.69.15,5.28-9.11,6.26,11.31.18-25.56-6.45,11.31-5.31-8.8ZM22.83,9.16c-.81,1.33-.98,2.94-.92,4.3l-4.05.03c1.09-1.71,2.82-3.82,4.97-4.33ZM23.88,32.9l-1.98-.11c0-.73,0-1.58.05-2.58l-1.34-.06c-.17,3.73.06,5.68.44,6.76-3.9-1.83-4.82-3.62-4.83-3.63-.41-.9-.6-1.9-.56-3l-1.34-.06c-.04.98.08,1.91.35,2.77l-1.08.05-4.27-7.72c.3.13.59.26.9.37,1.5.53,2.93.7,4.16.7.88,0,1.66-.09,2.29-.2l-.24-1.32c-1.36.25-3.46.37-5.76-.44-.78-.28-1.52-.65-2.22-1.08.01-.02.02-.03.03-.04l5.04-8.43,10.32-.07,5.38,8.91-5.34,9.21ZM34.98,16.07l-.11,15.29-4.24-7.66,4.35-7.63Z" fill="#2d468b"/>
    <path d="M16.27,17.46c-.8,0-1.45.65-1.45,1.45s.65,1.45,1.45,1.45,1.45-.65,1.45-1.45-.65-1.45-1.45-1.45Z" fill="#2d468b"/>
  </g>
</svg>