<?xml version="1.0" encoding="UTF-8"?>
<svg id="a" data-name="Ebene_1" xmlns="http://www.w3.org/2000/svg" width="46.56" height="46.56" viewBox="0 0 46.56 46.56">
  <ellipse cx="23.31" cy="23.15" rx="10.01" ry="12.72" fill="#65d08f"/>
  <g>
    <g>
      <path d="M23.28,0C10.44,0,0,10.44,0,23.28s10.44,23.28,23.28,23.28,23.28-10.44,23.28-23.28S36.12,0,23.28,0ZM23.28,45.21c-12.09,0-21.93-9.84-21.93-21.93S11.18,1.34,23.28,1.34s21.93,9.84,21.93,21.93-9.84,21.93-21.93,21.93Z" fill="#2d468b"/>
      <path d="M37.1,16.07c-.83-.4-2.27-.68-3.37-.66-.84.02-1.64.2-1.89.26-.23-.44-.47-.84-.69-1.2,1-1.03,1.57-2.68.94-4.28-.79-2-3.11-3.01-5.19-2.25-2.03.74-3.15,2.97-2.55,5.07l1.29-.37c-.41-1.43.34-2.94,1.71-3.44,1.37-.5,2.96.18,3.48,1.48.51,1.29-.19,2.69-1.14,3.25-.35.21-.75.31-1.2.32l.02,1.34c.55,0,1.07-.12,1.53-.34,1.36,2.21,3.2,6.27,2.31,11.11-.26,1.43-.81,4.41-3.4,6.73-.76.68-3.09,2.76-6.38,2.52-2.94-.21-4.81-2.15-5.62-2.97-2.31-2.38-3.37-5.73-3.17-9.96.15-3.07,1.55-5.75,2.02-6.63.13-.25.26-.48.38-.68.38.18.79.31,1.22.37l.17-1.33c-1.44-.19-2.55-1.43-2.51-2.83.03-1.28,1.04-2.42,2.35-2.64,1.28-.22,2.63.5,3.07,1.63.32.83.06,1.65-.07,1.97l1.25.51c.23-.58.56-1.73.08-2.96-.67-1.74-2.64-2.81-4.55-2.47-1.93.33-3.42,2.02-3.47,3.93-.03,1.19.5,2.29,1.35,3.08-.14.23-.29.5-.45.81-.05.1-.12.23-.19.37-.16-.07-1.93-.84-3.93-.37-2.48.59-3.99,3.6-4.49,5.28-1.37,4.63,1.69,9.79,5.11,12.62,1.06.88,2.18,1.54,3.28,2.03l-5.16-.05v1.34s11.61.11,11.61.11c.09,0,.18,0,.26,0v-.04c.43.11.89.19,1.37.22.21.01.41.02.62.02.73,0,1.45-.1,2.16-.29h0s11.88,0,11.88,0v-1.34h-5.56c.46-.21.91-.44,1.34-.69,1.1-.64,6.59-4.12,7.13-10.31.23-2.64-.36-7.03-2.95-8.28ZM11.99,32.29c-3.09-2.56-5.88-7.16-4.68-11.21.39-1.31,1.62-3.91,3.51-4.35,1.48-.35,2.86.2,3.04.28-.6,1.38-1.3,3.38-1.4,5.61-.22,4.62.98,8.3,3.55,10.96.32.33.85.87,1.57,1.43-1.76-.41-3.76-1.2-5.59-2.71ZM38.71,24.24c-.48,5.52-5.47,8.69-6.47,9.26-1.04.6-2.17,1.07-3.35,1.38.32-.24.64-.5.96-.78,2.94-2.62,3.56-6.03,3.84-7.51.7-3.83-.17-7.2-1.26-9.67.32-.07.82-.15,1.32-.16.95-.03,2.19.26,2.76.53,1.86.9,2.41,4.61,2.2,6.96Z" fill="#2d468b"/>
      <path d="M19.1,11.86c0-.6-.48-1.08-1.08-1.08s-1.08.48-1.08,1.08.48,1.08,1.08,1.08,1.08-.48,1.08-1.08Z" fill="#2d468b"/>
      <path d="M28.29,12.94c.6,0,1.08-.48,1.08-1.08s-.48-1.08-1.08-1.08-1.08.48-1.08,1.08.48,1.08,1.08,1.08Z" fill="#2d468b"/>
      <path d="M18.42,18.99l-1.16.67c.56.97,1.59,2.28,3.31,3.01.85.36,1.77.53,2.69.53,2.17,0,4.34-.95,5.61-2.61.19-.25.36-.52.51-.81l-1.2-.62c-.11.22-.24.42-.38.61-1.25,1.64-4.17,2.74-6.71,1.66-1.37-.58-2.21-1.65-2.67-2.44Z" fill="#2d468b"/>
    </g>
    <path d="M21.59,10.22c.24-.08.5-.16.79-.21,1.1-.2,2.05-.01,2.66.17" fill="#2d468b"/>
  </g>
</svg>