<?xml version="1.0" encoding="UTF-8"?>
<svg id="a" data-name="Ebene_1" xmlns="http://www.w3.org/2000/svg" width="46.56" height="46.56" viewBox="0 0 46.56 46.56">
  <path d="M46.39,20.61c-.06-.63-.16-1.28-.3-1.97-.18-.9-.42-1.8-.71-2.65-.19-.62-.43-1.25-.7-1.85-.34-.83-.75-1.66-1.22-2.46-.35-.61-.69-1.15-1.06-1.67-.52-.76-1.07-1.47-1.68-2.14-.45-.51-.91-1-1.37-1.42-.66-.64-1.35-1.22-2.08-1.77-.49-.37-1.02-.74-1.63-1.12-.74-.47-1.54-.91-2.37-1.31-.56-.27-1.18-.54-1.83-.78-.84-.32-1.71-.59-2.59-.8-.59-.15-1.23-.28-1.94-.39-.83-.14-1.7-.22-2.73-.27-.64-.02-1.32-.03-1.92.01-.89.03-1.8.12-2.69.27-.72.11-1.35.24-1.94.39-.89.22-1.76.49-2.59.81-.66.25-1.25.51-1.82.78-.85.41-1.64.85-2.37,1.31-.55.35-1.1.73-1.62,1.13-.74.55-1.43,1.14-2.06,1.76-.49.46-.96.95-1.37,1.43-.6.66-1.16,1.38-1.67,2.13-.38.54-.72,1.09-1.06,1.68-.45.77-.85,1.59-1.2,2.43-.28.64-.52,1.27-.7,1.86-.29.85-.53,1.74-.71,2.64-.13.7-.23,1.34-.3,1.94C.06,21.42,0,22.33,0,23.29c0,.67.03,1.34.09,1.97.07.96.2,1.84.38,2.71.13.61.29,1.24.48,1.91.25.87.57,1.74.93,2.57.26.62.56,1.23.87,1.78,4.06,7.6,11.92,12.32,20.52,12.32s16.43-4.69,20.5-12.24c.3-.55.59-1.15.86-1.78.38-.87.69-1.74.93-2.58.2-.65.37-1.28.5-1.93v-.07c.19-.89.32-1.78.39-2.66.06-.65.09-1.31.09-1.97v-.05c0-.94-.06-1.85-.16-2.67ZM44.76,27.75v.08c-.05.16-.09.33-.13.49l-7.07-1.89c-.09.44-.2.87-.33,1.29l7.05,1.89c-.23.78-.52,1.59-.87,2.39-.26.59-.54,1.16-.82,1.68-3.84,7.12-11.24,11.54-19.32,11.54s-15.52-4.45-19.34-11.61c-.29-.52-.56-1.09-.81-1.67-.32-.75-.6-1.52-.83-2.3l7.19-1.92c-.13-.43-.24-.86-.33-1.3l-7.21,1.93c-.05-.21-.1-.43-.15-.64-.17-.81-.29-1.65-.36-2.56-.04-.39-.04-.79-.06-1.19h7.41c-.01-.27-.02-.53-.02-.8,0-.18,0-.37.01-.55H1.37c.02-.65.06-1.28.14-1.88.06-.58.16-1.18.28-1.84.04-.22.1-.43.15-.64l7.14,1.91c.09-.44.2-.87.33-1.29l-7.12-1.91c.06-.19.11-.37.17-.56.18-.56.39-1.13.66-1.74.26-.61.55-1.2.86-1.77l6.38,3.68c.2-.4.42-.79.67-1.17l-6.37-3.68c.2-.31.39-.62.61-.93.48-.7,1-1.37,1.58-2,.16-.18.34-.35.51-.53l5.17,5.17c.3-.33.61-.65.94-.96l-5.17-5.17c.55-.53,1.14-1.04,1.78-1.51.5-.38,1.01-.74,1.53-1.07.06-.04.12-.07.18-.11l3.66,6.34c.37-.25.75-.47,1.15-.68l-3.65-6.33c.29-.16.58-.31.89-.46.54-.26,1.1-.5,1.72-.74.47-.18.96-.34,1.45-.48l1.89,7.05c.43-.14.86-.25,1.3-.34l-1.89-7.06c.46-.11.95-.21,1.5-.29.84-.14,1.69-.22,2.54-.25.1,0,.2,0,.3,0v7.29c.21-.02.43-.02.64-.02.24,0,.47,0,.71.02V1.36c.07,0,.13,0,.2,0,.92.04,1.75.12,2.53.25.6.09,1.12.2,1.63.32l-1.89,7.06c.44.09.87.2,1.29.34l1.89-7.05c.46.14.91.29,1.35.46.61.23,1.19.47,1.71.73.34.16.66.33.99.5l-3.66,6.32c.4.21.79.44,1.16.69l3.66-6.34s.06.03.09.05c.57.36,1.07.71,1.54,1.06.65.49,1.25,1,1.85,1.57l-5.17,5.17c.33.31.64.63.94.96l5.18-5.18c.15.16.3.32.45.49.57.64,1.09,1.3,1.58,2.02.22.3.42.63.63.96l-6.37,3.68c.24.38.46.77.67,1.17l6.37-3.68c.31.58.6,1.16.85,1.76.26.57.47,1.15.66,1.73.06.19.11.38.17.57l-7.12,1.9c.13.43.24.86.33,1.3l7.14-1.91c.05.21.11.43.15.64.13.64.22,1.24.28,1.85.08.58.11,1.21.13,1.85h-7.4c0,.18,0,.37,0,.55,0,.27,0,.53-.02.8h7.41c-.01.41-.02.82-.06,1.23-.07.85-.19,1.72-.37,2.56Z" fill="#2d468b"/>
  <path d="M20.05,23.36c0-.65-.53-1.18-1.18-1.18s-1.18.53-1.18,1.18.53,1.18,1.18,1.18,1.18-.53,1.18-1.18Z" fill="#2d468b"/>
  <path d="M27.7,24.55c.65,0,1.18-.53,1.18-1.18s-.53-1.18-1.18-1.18c-.65,0-1.19.53-1.19,1.18s.53,1.18,1.19,1.18Z" fill="#2d468b"/>
  <path d="M19.57,28.21c.78,1.22,2.17,2.04,3.75,2.04s2.88-.76,3.67-1.91c-.99.58-2.25.92-3.61.92-1.46,0-2.79-.39-3.81-1.05Z" fill="#2d468b"/>
  <path d="M22.72,27.03c.18,0,.33-.15.33-.34s-.15-.34-.33-.34-.34.15-.34.34.15.34.34.34Z" fill="#2d468b"/>
  <path d="M23.85,27.03c.18,0,.34-.15.34-.34s-.15-.34-.34-.34-.34.15-.34.34.15.34.34.34Z" fill="#2d468b"/>
  <path d="M23.27,12.39c-5.99,0-10.88,4.89-10.88,10.88s4.89,10.89,10.88,10.89,10.89-4.89,10.89-10.89-4.89-10.88-10.89-10.88ZM32.38,23.27h.47c0,5.28-4.29,9.57-9.57,9.57s-9.29-4.03-9.54-9.08c.11-.16.27-.34.54-.47h.02s2.7-1.13,5.23-4.62l.28-.4.23.43s.98,1.9,2.89,2.7l.36.11v-.37c.02-.17.09-.33.24-.48l.29-.28.19.35c.04.09.4.69.88.8h.12l-.08-.14c-.15-.37-.15-.94.38-1.78l.23-.37.27.34s2.53,3.3,6.51,3.68h.07Z" fill="#2d468b"/>
</svg>