<?xml version="1.0" encoding="UTF-8"?>
<svg id="a" data-name="Ebene_1" xmlns="http://www.w3.org/2000/svg" width="46.56" height="46.56" viewBox="0 0 46.56 46.56">
  <path d="M26.17,4.96c.85.17,3.01.53,5.07,1.96,2.98,2.07,4.01,5.18,4.42,6.41,1.49,4.52,1.12,11.07-3.08,15.22-3.67,3.62-8.81,3.98-10.44,4.09-1.24.09-4.03.12-7.07-.07-.94-.06-1.72-.13-2.25-.18,0,0-.71-6.12,5.7-11.06,6.42-4.94,6.43-11.37,5.47-13.66s-1.51-2.78-1.51-2.78c0,0,1.77-.32,3.67.07Z" fill="#ee8984"/>
  <g>
    <path d="M23.28,0C10.44,0,0,10.44,0,23.28s10.44,23.28,23.28,23.28,23.28-10.44,23.28-23.28S36.12,0,23.28,0ZM23.28,45.21c-12.09,0-21.93-9.84-21.93-21.93S11.18,1.34,23.28,1.34s21.93,9.84,21.93,21.93-9.84,21.93-21.93,21.93Z" fill="#2d468b"/>
    <ellipse cx="28.45" cy="12.73" rx="1.65" ry="1.59" fill="#2d468b"/>
    <path d="M32.17,6.22c-2.22-1.54-4.57-1.94-5.34-2.07-1.14-.19-2.31-.24-3.48-.15l-.4.05c-2.25.29-4.35,1.11-6.08,2.36-2.97,2.15-5.73,6.16-5.2,10.3.23,1.79,1.11,3.51,1.79,3.99.29.21.55.21.72.17.64-.14.71-.8.78-1.49.06-.62.15-1.42.51-1.92.62,1.42,1.46,2.64,2.52,3.64h-.01s.06.06.06.06c-2.39,2.09-5.02,5.32-5.32,9.56-.04.51-.04,1.04,0,1.56l-.04,8.7.64.03c.05,0,.12,0,.19,0,.06,0,.12,0,.19,0,1.32-.06,2.57-.73,3.73-1.99.28-.31.53-.66.75-1.02.33.11.72.19,1.16.19.19,0,.4-.02.61-.05.89-.15,1.47-.6,1.75-.82,1.48-1.16,1.96-3.08,2.12-4.23,2.3-.24,6.55-1,9.79-4.2,4.43-4.37,4.82-11.14,3.25-15.91-.41-1.25-1.5-4.55-4.68-6.75ZM13.68,18.76c-.28-.56-.56-1.35-.67-2.22-.46-3.59,2.01-7.13,4.65-9.04,1.41-1.02,3.11-1.7,4.97-2.02.33.45,1.1,1.61,1.42,2.62.77,2.4-.06,5.12-.67,6.61-.4-.11-.8-.2-1.21-.26-2.96-.42-5.5.63-7.1,1.57h0s-.02,0-.03.02c-.99.64-1.25,1.8-1.37,2.73ZM25.47,8.2c1.43.11,4.19.65,5.89,3.03.92,1.28,1.36,2.86,1.32,4.7-.02.9-.06,2.77-1.4,4.36-1,1.19-2.23,1.64-3.05,1.94-1.81.66-3.58.58-4.34.54-.18,0-.32-.02-.44-.03l-.61-.21c-1.04-.42-2.02-1.02-2.65-1.44,1.79-1.49,3.15-3.16,4.03-4.96.51-1.05,2.05-4.62,1.25-7.93ZM19.06,20.27s0,0,0,0c-1.04-.94-1.84-2.14-2.42-3.55,1.39-.67,3.26-1.23,5.36-.94.27.04.54.09.81.16-.84,1.55-2.12,3.03-3.74,4.34ZM14.05,30.81c.28-3.91,2.83-6.91,5.07-8.82.64.45,1.86,1.25,3.24,1.8l.21.07c-.15,1.03-.44,2-.91,2.9-.4.77-1.97,3.38-5.19,4.42-.79.25-1.61.39-2.44.41,0-.26,0-.52.02-.77ZM17.29,36.85c-.23.46-.52.88-.85,1.25-.31.34-1.19,1.29-2.42,1.51l.03-6.63c.44.04.95.08,1.53.12.83.05,1.66.09,2.44.11.05,1.02-.1,1.99-.42,2.9-.1.26-.2.51-.31.73ZM20.87,36.25c-.22.17-.59.46-1.15.56-.34.06-.66.03-.93-.04.03-.07.06-.12.08-.19.38-1.05.55-2.17.51-3.33,1.25.01,2.3,0,3.06-.05-.16.91-.56,2.27-1.57,3.06ZM32.66,27.93c-3.49,3.44-8.4,3.79-10.01,3.9-.92.06-2.51.09-4.35.04,2.76-1.39,4.16-3.73,4.56-4.5.53-1.01.88-2.11,1.05-3.26.82.04,2.79.1,4.78-.62.89-.32,2.38-.87,3.62-2.34,1.65-1.96,1.69-4.23,1.71-5.2.05-2.14-.48-3.99-1.57-5.52-2.28-3.19-6.11-3.58-7.47-3.61-.24-.5-.53-1.04-.82-1.5.82-.02,1.65.01,2.46.15.7.12,2.82.47,4.8,1.85,2.8,1.95,3.79,4.94,4.17,6.07,1.4,4.23,1.08,10.58-2.91,14.53Z" fill="#2d468b"/>
  </g>
</svg>