<?xml version="1.0" encoding="UTF-8"?>
<svg id="a" data-name="Ebene_1" xmlns="http://www.w3.org/2000/svg" width="46.56" height="46.56" xmlns:xlink="http://www.w3.org/1999/xlink" viewBox="0 0 46.56 46.56">
  <defs>
    <radialGradient id="b" data-name="Unbenannter Verlauf 6" cx="51.17" cy="39.17" fx="51.17" fy="39.17" r="40.29" gradientUnits="userSpaceOnUse">
      <stop offset=".37" stop-color="#65d08f"/>
      <stop offset=".86" stop-color="#ffde68"/>
      <stop offset="1" stop-color="#ee8984"/>
    </radialGradient>
    <radialGradient id="c" data-name="Unbenannter Verlauf 6" r="40.29" xlink:href="#b"/>
    <radialGradient id="d" data-name="Unbenannter Verlauf 6" r="40.29" xlink:href="#b"/>
  </defs>
  <path d="M15.49,22.73c1.24.05,2.46.33,3.53.76,3.69-7.7,10.04-13.9,17.84-17.4-1.08-.85-2.23-1.61-3.46-2.25-7.89,4.1-14.23,10.76-17.92,18.89Z" fill="url(#b)"/>
  <path d="M23.2,26.62c3.35-7.63,9.68-13.67,17.52-16.61-.81-1.07-1.72-2.06-2.72-2.96-7.79,3.32-14.12,9.41-17.77,17.02.08.04.16.09.24.13,1.15.7,2.06,1.51,2.73,2.42Z" fill="url(#c)"/>
  <path d="M24.36,29.1c1.17-.64,2.44-.97,3.69-.96,2.98-6.42,8.51-11.43,15.29-13.71-.51-1.15-1.12-2.26-1.81-3.3-7.98,2.89-14.37,9.11-17.49,16.98.07.17.14.34.19.51.05.16.09.32.13.48Z" fill="url(#d)"/>
  <path d="M45.14,15.29c-.07-.19-.15-.39-.23-.58-.09-.23-.18-.45-.27-.67-.51-1.17-1.11-2.28-1.79-3.34-.26-.4-.52-.78-.8-1.16-.8-1.09-1.69-2.11-2.67-3.04-.36-.35-.73-.69-1.11-1.01-1.06-.89-2.19-1.69-3.4-2.38-.25-.15-.51-.29-.77-.43-.23-.12-.46-.24-.7-.36C30.34.84,26.9,0,23.28,0,10.44,0,0,10.45,0,23.28,0,26.2.54,28.99,1.53,31.56c.1.29.21.57.33.85.13.3.26.59.4.88,1.9,3.96,4.88,7.3,8.56,9.64.09.06.17.12.26.17.39.24.79.47,1.19.69,1.21.65,2.49,1.2,3.82,1.63.47.16.95.3,1.44.42,1.29.33,2.63.55,4,.65.46.03.93.06,1.4.06.12,0,.23.01.35.01,1.16,0,2.31-.09,3.43-.25.08-.02.15-.03.23-.04.37-.06.74-.12,1.1-.2,3.37-.7,6.48-2.14,9.14-4.13.31-.23.61-.46.9-.7.27-.23.54-.46.8-.7,4.71-4.26,7.68-10.42,7.68-17.26,0-2.8-.5-5.49-1.42-7.99ZM43.34,14.44c-6.77,2.28-12.3,7.28-15.28,13.71-1.26-.01-2.52.31-3.7.96-.04-.17-.08-.33-.13-.49-.05-.17-.12-.34-.19-.51,3.12-7.86,9.51-14.08,17.49-16.97.7,1.04,1.3,2.14,1.81,3.3ZM40.72,10.01c-7.84,2.94-14.17,8.98-17.52,16.61-.66-.91-1.57-1.73-2.72-2.42-.08-.05-.16-.09-.24-.14,3.64-7.61,9.98-13.7,17.77-17.02.99.91,1.9,1.9,2.71,2.97ZM36.87,6.08c-7.81,3.51-14.16,9.7-17.85,17.4-1.07-.42-2.29-.71-3.53-.75,3.68-8.13,10.02-14.8,17.91-18.89,1.23.64,2.39,1.39,3.47,2.24ZM1.34,23.28C1.34,11.19,11.18,1.35,23.28,1.35c3.05,0,5.97.63,8.61,1.76-7.94,4.38-14.28,11.31-17.91,19.68-1.32.17-2.62.62-3.77,1.48-1.58,1.17-2.41,2.72-2.87,3.99-.94-.02-2.49.13-3.92,1.13-.37.25-.67.54-.95.84-.73-2.19-1.13-4.52-1.13-6.95ZM27.69,44.77c-.36.07-.72.14-1.09.2-.08.01-.16.01-.23.03-1.01.14-2.04.22-3.09.22-.23,0-.45,0-.67-.02-.47-.01-.93-.04-1.39-.08-1.36-.13-2.68-.38-3.95-.75-.48-.13-.96-.28-1.42-.45-1.31-.47-2.56-1.07-3.74-1.77-.39-.23-.78-.48-1.16-.73-.09-.06-.17-.13-.26-.19-3.38-2.38-6.06-5.68-7.67-9.55.29-.42.67-.84,1.16-1.19,1.24-.86,2.62-.92,3.34-.88l.88.09.13-.78c.34-1.04,1.04-2.5,2.48-3.57.73-.55,1.54-.89,2.38-1.09.13-.03.26-.06.4-.09.37-.06.75-.1,1.12-.11,1.24-.03,2.48.22,3.56.65.43.17.84.36,1.21.58.04.02.07.04.1.06,1.3.79,2.24,1.73,2.8,2.81.15.28.27.57.37.87.11.35.18.72.22,1.08l.04.37.84.42.33-.23c.96-.66,2.02-1.05,3.09-1.15.12-.01.25-.02.38-.02.35-.01.7.01,1.05.07.05.01.12.01.17.02,1.59.31,3.13,1.28,3.91,2.46.54.83.72,1.71.53,2.62l-.16.73.75.08c1.78.18,3.05,1.41,3.38,3.28.07.39.1.76.09,1.14-2.78,2.39-6.15,4.11-9.88,4.87ZM38.83,38.73c0-.07,0-.13-.02-.2-.4-2.22-1.86-3.81-3.89-4.28.06-1.02-.22-2.03-.82-2.94-.96-1.46-2.73-2.6-4.64-3,2.88-5.93,8.07-10.52,14.39-12.63.88,2.37,1.36,4.93,1.36,7.6,0,6.02-2.44,11.48-6.38,15.45Z" fill="#2d468b"/>
</svg>