<?xml version="1.0" standalone="no"?>
<!DOCTYPE svg PUBLIC "-//W3C//DTD SVG 1.1//EN" "http://www.w3.org/Graphics/SVG/1.1/DTD/svg11.dtd">
<!--Generator: Xara Designer (www.xara.com), SVG filter version: 6.6.0.13-->
<svg fill="none" fill-rule="evenodd" stroke="black" stroke-linejoin="bevel" stroke-miterlimit="10" font-family="Times New Roman" font-size="16" style="font-variant-ligatures:none" xmlns:xlink="http://www.w3.org/1999/xlink" xmlns="http://www.w3.org/2000/svg" version="1.1" overflow="visible" width="416.435pt" height="334.012pt" viewBox="25.296 -820.047 416.435 334.012">
 <defs>
  <style type="text/css">@import url('https://themes.googleusercontent.com/fonts/css?family=Open Sans:400,600');</style>
 </defs>
 <g id="Layer 1" transform="scale(1 -1)" stroke-width="0.501">
  <path d="M 98.701,611.562 C 103.522,613.523 108.268,615.543 112.836,617.55 C 123.594,551.54 181.018,500.993 250.026,500.993 C 326.67,500.993 389.023,563.348 389.023,639.99 C 389.023,665.489 382.121,689.407 370.088,709.972 C 374.359,712.244 378.768,714.643 383.233,717.117 C 396.422,694.424 403.981,668.073 403.981,639.99 C 403.981,555.099 334.916,486.035 250.026,486.035 C 174.845,486.035 112.077,540.203 98.701,611.562 Z M 250.026,793.945 C 265.751,793.945 280.933,791.575 295.233,787.174 C 289.584,783.951 284.837,780.088 280.946,775.522 C 270.998,777.79 260.649,778.989 250.026,778.989 C 188.024,778.989 135.372,738.182 117.518,682.017 C 116.22,681.479 114.91,680.934 113.589,680.382 C 108.828,678.391 104.295,676.446 99.981,674.546 C 115.708,742.857 177.014,793.945 250.026,793.945 Z" fill="#00ae4d" stroke-width="0.659" stroke-linejoin="miter" fill-rule="nonzero" stroke="none" marker-start="none" marker-end="none" stroke-miterlimit="10000"/>
  <path d="M 165.32,587.441 L 164.632,588.981 C 163.994,590.402 162.607,590.947 161.16,590.307 L 151.946,586.181 L 147.278,596.615 L 160.285,602.433 C 161.186,602.837 161.574,603.435 161.737,603.868 C 161.901,604.3 162.014,605.004 161.611,605.905 L 160.894,607.506 C 160.258,608.927 158.869,609.472 157.424,608.829 L 139.946,601.01 C 139.044,600.607 138.66,600.008 138.494,599.576 C 138.33,599.146 138.217,598.442 138.62,597.541 L 154.656,561.693 C 155.112,560.675 155.938,560.092 156.918,560.092 C 157.311,560.092 157.717,560.185 158.128,560.369 L 160.2,561.295 C 161.102,561.701 161.487,562.299 161.653,562.729 C 161.817,563.161 161.93,563.865 161.527,564.764 L 154.78,579.846 L 163.997,583.972 C 165.452,584.626 165.971,585.986 165.32,587.441 Z" fill="#00ae4d" stroke-linejoin="miter" fill-rule="nonzero" stroke-width="0.659" stroke="none" marker-start="none" marker-end="none" stroke-miterlimit="10000"/>
  <path d="M 188.2,581.734 C 187.826,580.558 186.914,579.64 185.488,579.002 C 184.691,578.647 183.929,578.465 183.22,578.465 C 180.853,578.465 179.435,580.521 178.665,582.245 L 174.37,591.844 C 173.3,594.237 172.799,597.438 176.5,599.091 C 177.31,599.455 178.085,599.639 178.799,599.639 C 180.676,599.639 182.187,598.382 183.294,595.906 L 187.615,586.249 C 188.401,584.496 188.598,582.978 188.2,581.734 Z M 194.298,589.74 L 190.375,598.505 C 187.019,606.016 181.122,608.407 173.798,605.13 C 166.483,601.859 164.313,595.901 167.687,588.356 L 171.61,579.588 C 173.975,574.297 177.6,571.502 182.087,571.502 C 183.972,571.502 186.023,571.993 188.187,572.963 C 191.962,574.65 194.377,577.015 195.368,579.988 C 196.299,582.791 195.94,586.073 194.298,589.74 Z" fill="#00ae4d" stroke-linejoin="miter" fill-rule="nonzero" stroke-width="0.659" stroke="none" marker-start="none" marker-end="none" stroke-miterlimit="10000"/>
  <path d="M 223.676,592.569 L 212.066,618.52 C 211.431,619.941 210.042,620.489 208.597,619.843 L 206.525,618.918 C 205.067,618.264 204.548,616.904 205.199,615.446 L 213.435,597.037 C 213.018,593.823 211.608,591.253 209.802,590.446 C 209.441,590.286 209.087,590.204 208.753,590.204 C 206.976,590.204 205.581,592.484 204.724,594.401 L 196.958,611.761 C 196.323,613.184 194.936,613.727 193.489,613.087 L 191.414,612.159 C 190.515,611.755 190.127,611.157 189.964,610.725 C 189.798,610.292 189.687,609.588 190.09,608.689 L 198.252,590.439 C 201.157,583.948 205.03,582.585 207.769,582.585 C 209.053,582.585 210.379,582.891 211.708,583.484 C 214.181,584.589 216.008,586.711 217.075,589.695 L 217.104,589.627 C 217.742,588.206 219.134,587.657 220.574,588.303 L 222.35,589.099 C 223.252,589.5 223.639,590.101 223.803,590.531 C 223.969,590.963 224.08,591.667 223.676,592.569 Z" fill="#00ae4d" stroke-linejoin="miter" fill-rule="nonzero" stroke-width="0.659" stroke="none" marker-start="none" marker-end="none" stroke-miterlimit="10000"/>
  <path d="M 234.693,597.498 L 226.589,615.61 C 226.995,618.567 228.374,620.592 230.702,621.633 C 231.134,621.826 231.192,621.852 231.833,622.071 C 232.508,622.314 232.943,622.68 233.162,623.191 C 233.394,623.734 233.341,624.362 233.006,625.116 L 231.68,628.076 C 230.968,629.671 229.771,630.17 228.184,629.46 C 225.735,628.364 223.9,626.168 222.864,623.144 L 222.788,623.318 C 222.153,624.739 220.766,625.287 219.316,624.641 L 217.542,623.845 C 216.084,623.194 215.565,621.834 216.216,620.376 L 227.823,594.425 C 228.279,593.407 229.104,592.824 230.085,592.824 C 230.478,592.824 230.884,592.917 231.295,593.101 L 233.37,594.029 C 234.825,594.683 235.344,596.043 234.693,597.498 Z" fill="#00ae4d" stroke-linejoin="miter" fill-rule="nonzero" stroke-width="0.659" stroke="none" marker-start="none" marker-end="none" stroke-miterlimit="10000"/>
  <path d="M 263.347,610.361 L 262.619,611.832 C 261.942,613.137 260.99,613.334 260.481,613.334 C 259.943,613.334 259.4,613.129 258.889,612.739 C 257.684,611.853 256.622,611.109 254.869,610.326 C 251.855,608.979 249.438,609.981 247.948,613.313 L 243.68,622.851 C 242.193,626.176 243.005,628.561 246.095,629.943 C 247.347,630.504 248.708,630.937 250.255,631.261 C 251.407,631.511 252.135,631.96 252.478,632.637 C 252.77,633.22 252.749,633.897 252.412,634.649 L 251.724,636.193 C 251.204,637.351 250.408,637.912 249.29,637.912 C 249.074,637.912 248.84,637.891 248.56,637.841 C 246.401,637.406 244.922,636.95 243.288,636.217 C 239.462,634.509 237,632.155 235.972,629.226 C 234.983,626.413 235.329,623.094 236.997,619.364 L 240.92,610.595 C 243.324,605.225 246.833,602.502 251.347,602.502 C 253.253,602.502 255.341,603.006 257.558,603.997 C 259.179,604.719 260.671,605.576 262.25,606.686 C 263.339,607.442 264.32,608.476 263.347,610.361 Z" fill="#00ae4d" stroke-linejoin="miter" fill-rule="nonzero" stroke-width="0.659" stroke="none" marker-start="none" marker-end="none" stroke-miterlimit="10000"/>
  <path d="M 288.486,621.562 L 280.322,639.813 C 277.435,646.267 273.533,647.619 270.773,647.619 C 269.45,647.619 268.074,647.305 266.69,646.686 C 264.264,645.602 262.451,643.564 261.354,640.728 L 256.245,652.148 C 255.607,653.572 254.22,654.12 252.773,653.474 L 250.701,652.546 C 249.243,651.895 248.724,650.532 249.375,649.077 L 266.152,611.571 C 266.608,610.553 267.43,609.968 268.414,609.968 C 268.804,609.968 269.21,610.063 269.624,610.247 L 271.696,611.175 C 272.597,611.576 272.982,612.177 273.148,612.609 C 273.312,613.039 273.423,613.743 273.022,614.645 L 264.81,633.001 C 265.182,636.233 266.653,638.856 268.596,639.723 C 269.025,639.916 269.439,640.013 269.827,640.013 C 271.614,640.013 272.959,637.844 273.771,636.027 L 281.616,618.488 C 282.254,617.067 283.638,616.519 285.088,617.165 L 287.16,618.093 C 288.615,618.744 289.137,620.104 288.486,621.562 Z" fill="#00ae4d" stroke-linejoin="miter" fill-rule="nonzero" stroke-width="0.659" stroke="none" marker-start="none" marker-end="none" stroke-miterlimit="10000"/>
  <path d="M 299.646,646.214 L 291.289,642.473 L 290.424,644.403 C 289.738,645.937 289.58,647.345 289.968,648.481 C 290.334,649.557 291.165,650.39 292.435,650.959 C 293.187,651.294 293.909,651.465 294.584,651.465 C 296.827,651.465 298.148,649.562 298.863,647.964 L 299.646,646.214 Z M 312.384,632.508 L 311.625,634.042 C 310.971,635.3 310.03,635.487 309.526,635.487 C 308.983,635.487 308.44,635.281 307.923,634.889 C 306.147,633.576 304.053,632.329 302.324,631.556 C 301.014,630.971 299.93,630.686 299.01,630.686 C 297.869,630.686 296.39,631.066 295.064,634.034 L 293.909,636.615 L 305.791,641.93 C 306.566,642.275 307.633,642.868 307.989,644.026 C 308.308,645.054 307.926,646.127 307.56,646.947 L 305.996,650.445 C 302.698,657.821 296.875,660.191 289.733,656.996 C 282.547,653.78 280.527,648.096 283.899,640.559 L 288.062,631.258 C 290.424,625.978 293.651,623.41 297.929,623.41 C 299.967,623.41 302.226,623.98 304.836,625.148 C 307.09,626.155 309.561,627.618 311.469,629.076 C 313.135,630.425 312.748,631.823 312.384,632.508 Z" fill="#00ae4d" stroke-linejoin="miter" fill-rule="nonzero" stroke-width="0.659" stroke="none" marker-start="none" marker-end="none" stroke-miterlimit="10000"/>
  <path d="M 333.163,641.529 L 332.514,642.818 C 331.834,644.126 330.888,644.321 330.384,644.321 C 329.86,644.321 329.338,644.123 328.834,643.738 C 327.946,643.064 326.72,642.328 325.779,641.906 C 325.12,641.614 324.542,641.463 324.06,641.463 C 323.346,641.463 322.402,641.74 321.434,643.91 L 314.261,659.941 L 323.179,663.93 C 324.637,664.581 325.157,665.944 324.505,667.399 L 323.976,668.585 C 323.34,670.009 321.948,670.554 320.506,669.909 L 311.588,665.92 L 309.213,671.227 C 308.575,672.65 307.238,673.22 305.92,672.629 L 304.38,671.941 C 303.118,671.374 302.596,670.149 303.017,668.73 L 304.823,662.894 L 302.967,662.066 C 301.512,661.412 300.993,660.052 301.641,658.594 L 302.171,657.41 C 302.806,655.989 304.196,655.438 305.643,656.087 L 307.391,656.867 L 314.377,641.252 C 316.46,636.599 319.254,634.335 322.921,634.335 C 324.571,634.335 326.39,634.788 328.476,635.722 C 329.741,636.288 331.426,637.335 332.367,638.142 C 333.566,639.112 333.83,640.256 333.163,641.529 Z" fill="#00ae4d" stroke-linejoin="miter" fill-rule="nonzero" stroke-width="0.659" stroke="none" marker-start="none" marker-end="none" stroke-miterlimit="10000"/>
  <path d="M 350.699,649.372 L 350.051,650.661 C 349.371,651.969 348.424,652.164 347.921,652.164 C 347.396,652.164 346.874,651.969 346.368,651.584 C 345.482,650.909 344.256,650.171 343.315,649.752 C 342.656,649.456 342.079,649.306 341.596,649.306 C 340.882,649.306 339.938,649.586 338.971,651.755 L 331.797,667.784 L 337.102,670.156 C 338.557,670.808 339.079,672.171 338.428,673.626 L 337.898,674.812 C 337.265,676.236 335.865,676.779 334.428,676.135 L 329.124,673.763 L 326.749,679.067 C 326.111,680.493 324.777,681.065 323.456,680.472 L 321.917,679.784 C 320.657,679.22 320.135,677.994 320.554,676.573 L 322.36,670.736 L 320.506,669.909 C 319.605,669.505 319.217,668.907 319.051,668.474 C 318.888,668.042 318.777,667.338 319.18,666.439 L 319.71,665.253 C 320.348,663.827 321.74,663.284 323.179,663.93 L 324.927,664.71 L 331.913,649.095 C 333.999,644.442 336.793,642.178 340.458,642.18 C 342.108,642.18 343.927,642.634 346.012,643.564 C 347.285,644.137 348.967,645.183 349.903,645.985 C 351.103,646.955 351.366,648.099 350.699,649.372 Z" fill="#00ae4d" stroke-linejoin="miter" fill-rule="nonzero" stroke-width="0.659" stroke="none" marker-start="none" marker-end="none" stroke-miterlimit="10000"/>
  <path d="M 358.737,672.608 L 350.38,668.87 L 349.516,670.8 C 348.83,672.331 348.672,673.742 349.06,674.875 C 349.426,675.951 350.256,676.784 351.527,677.353 C 352.279,677.688 353.001,677.86 353.678,677.86 C 355.919,677.86 357.24,675.956 357.954,674.359 L 358.737,672.608 Z M 371.927,659.147 L 371.17,660.679 C 370.516,661.937 369.575,662.124 369.071,662.124 C 368.528,662.124 367.983,661.918 367.466,661.525 C 365.692,660.212 363.599,658.965 361.869,658.19 C 360.559,657.605 359.476,657.32 358.555,657.32 C 357.414,657.32 355.935,657.703 354.609,660.671 L 353.454,663.252 L 365.336,668.567 C 366.108,668.912 367.179,669.505 367.535,670.663 C 367.854,671.691 367.471,672.764 367.105,673.584 L 365.542,677.082 C 362.241,684.456 356.417,686.828 349.278,683.633 C 345.664,682.014 343.342,679.747 342.374,676.895 C 341.441,674.135 341.802,670.871 343.444,667.196 L 347.604,657.895 C 349.967,652.615 353.196,650.05 357.475,650.05 C 359.512,650.05 361.772,650.616 364.382,651.784 C 366.638,652.794 369.108,654.257 371.012,655.712 C 372.678,657.062 372.293,658.459 371.927,659.147 Z" fill="#00ae4d" stroke-linejoin="miter" fill-rule="nonzero" stroke-width="0.659" stroke="none" marker-start="none" marker-end="none" stroke-miterlimit="10000"/>
  <path d="M 242.887,574.674 C 242.742,576.48 241.239,577.392 239.491,576.611 L 237.24,575.607 C 235.953,575.03 235.355,573.949 235.555,572.549 L 239.201,549.286 L 224.28,567.516 C 223.384,568.587 222.187,568.863 220.887,568.291 L 218.636,567.284 C 217.534,566.791 217.181,566.074 217.08,565.56 C 216.941,564.851 217.202,564.105 217.787,563.491 L 237.409,541.075 C 238.004,540.363 238.714,540.004 239.52,540.004 C 239.934,540.004 240.367,540.102 240.804,540.299 L 244.774,542.076 C 246.058,542.651 246.657,543.732 246.464,545.1 L 242.887,574.674 Z" fill="#00ae4d" stroke-linejoin="miter" fill-rule="nonzero" stroke-width="0.659" stroke="none" marker-start="none" marker-end="none" stroke-miterlimit="10000"/>
  <path d="M 263.089,572.744 L 254.732,569.003 L 253.867,570.933 C 253.181,572.464 253.023,573.878 253.411,575.011 C 253.777,576.087 254.608,576.92 255.878,577.487 C 256.63,577.824 257.352,577.995 258.027,577.995 C 260.27,577.995 261.591,576.089 262.306,574.494 L 263.089,572.744 Z M 275.827,559.038 L 275.068,560.57 C 274.414,561.83 273.473,562.017 272.969,562.017 C 272.426,562.017 271.883,561.814 271.366,561.419 C 269.59,560.106 267.496,558.859 265.767,558.086 C 264.459,557.498 263.376,557.214 262.453,557.214 C 261.314,557.214 259.835,557.596 258.507,560.564 L 257.352,563.143 L 269.234,568.46 C 270.006,568.805 271.076,569.399 271.432,570.556 C 271.751,571.584 271.369,572.66 271.003,573.479 L 269.439,576.975 C 266.492,583.558 262.195,584.939 259.108,584.939 C 257.27,584.939 255.275,584.465 253.176,583.526 C 249.562,581.908 247.239,579.643 246.274,576.791 C 245.341,574.028 245.7,570.764 247.342,567.089 L 251.505,557.788 C 253.867,552.508 257.096,549.94 261.375,549.94 C 263.41,549.94 265.669,550.51 268.279,551.675 C 270.533,552.685 273.006,554.148 274.912,555.606 C 276.576,556.955 276.191,558.353 275.827,559.038 Z" fill="#00ae4d" stroke-linejoin="miter" fill-rule="nonzero" stroke-width="0.659" stroke="none" marker-start="none" marker-end="none" stroke-miterlimit="10000"/>
  <path d="M 322.905,599.56 L 314.548,595.819 L 313.684,597.751 C 312.323,600.788 313.04,603.116 315.695,604.305 C 316.446,604.64 317.169,604.811 317.844,604.811 C 320.087,604.811 321.408,602.908 322.122,601.31 L 322.905,599.56 Z M 336.142,586.017 L 335.383,587.552 C 334.729,588.807 333.788,588.996 333.287,588.996 C 332.741,588.996 332.195,588.791 331.681,588.398 C 329.897,587.08 327.803,585.833 326.079,585.063 C 324.772,584.478 323.688,584.193 322.768,584.193 C 321.627,584.193 320.148,584.575 318.822,587.541 L 317.664,590.122 L 329.549,595.439 C 332.512,596.766 332.05,598.819 331.318,600.456 L 329.754,603.952 C 326.454,611.328 320.633,613.696 313.491,610.506 C 306.302,607.289 304.285,601.606 307.655,594.066 L 311.817,584.765 C 314.179,579.487 317.409,576.92 321.687,576.92 C 323.725,576.92 325.982,577.487 328.594,578.654 C 330.846,579.664 333.319,581.125 335.227,582.585 C 336.891,583.932 336.506,585.329 336.142,586.017 Z" fill="#00ae4d" stroke-linejoin="miter" fill-rule="nonzero" stroke-width="0.659" stroke="none" marker-start="none" marker-end="none" stroke-miterlimit="10000"/>
  <path d="M 332.662,748.184 C 332.92,747.573 333.693,746.669 334.544,746.147 C 335.417,745.609 336.458,745.575 337.051,745.814 C 339.363,746.698 430.067,784.544 430.172,784.581 L 430.167,784.575 C 432.112,785.482 433.837,784.952 434.506,783.458 C 435.197,781.931 434.459,780.323 432.492,779.437 L 432.46,779.424 C 432.445,779.411 432.429,779.4 432.41,779.395 C 429.123,777.703 345.324,733.733 343.099,732.562 C 341.931,732.04 341.225,729.193 341.86,727.782 C 342.656,726.027 345.071,725.07 346.223,725.592 C 346.331,725.634 347.061,725.945 348.59,726.636 C 364.034,733.609 436.905,766.525 437.003,766.565 C 438.967,767.471 440.754,766.994 441.437,765.455 C 442.244,763.767 441.295,762.32 439.755,761.337 C 417.892,747.391 369.464,718.695 341.987,706.278 C 339.888,705.329 337.908,704.483 336.047,703.758 C 322.447,698.567 311.764,700.423 302.994,704.119 C 293.129,708.387 274.649,711.949 261.588,705.358 C 220.972,684.851 192.215,665.849 132.876,637.027 C 86.501,614.497 32.771,594.477 25.922,609.633 C 19.081,624.794 69.582,651.953 117.158,671.846 C 178.019,697.291 211.294,706.294 253.535,723.195 C 267.114,728.626 276.665,744.847 279.982,755.081 C 283.016,764.092 288.652,773.316 301.544,780.081 C 303.313,780.998 305.256,781.926 307.359,782.872 C 334.84,795.276 388.132,812.549 413.353,819.814 C 415.109,820.321 416.822,820.073 417.555,818.346 C 418.256,816.817 417.439,815.161 415.459,814.291 C 415.367,814.249 342.472,781.357 327.036,774.386 C 325.505,773.693 324.782,773.35 324.687,773.298 C 323.527,772.778 322.652,770.334 323.443,768.576 C 324.078,767.16 326.683,765.813 327.848,766.348 C 330.195,767.242 418.594,801.01 422.039,802.36 L 422.092,802.386 L 422.126,802.399 C 424.085,803.282 425.785,802.771 426.473,801.25 C 427.151,799.758 426.41,798.11 424.433,797.256 L 424.444,797.253 C 424.351,797.208 335.979,754.193 333.785,753.043 C 333.218,752.751 332.554,751.957 332.38,750.942 C 332.211,749.951 332.377,748.786 332.662,748.184 Z" fill="#00ae4d" stroke-linejoin="miter" fill-rule="nonzero" stroke-width="0.659" stroke="none" marker-start="none" marker-end="none" stroke-miterlimit="10000"/>
  <path d="M 286.823,563.702 L 278.719,581.813 C 279.122,584.771 279.889,587.407 282.225,588.453 C 282.357,588.514 282.734,588.751 283.166,589.062 C 283.285,589.105 283.422,589.152 283.622,589.221 C 284.126,589.4 284.371,589.666 284.397,590.064 C 284.906,590.544 285.267,591.024 285.136,591.319 L 283.807,594.282 C 283.095,595.877 281.898,596.37 280.314,595.666 C 277.862,594.567 276.03,592.371 274.994,589.347 L 274.917,589.521 C 274.282,590.942 272.89,591.493 271.445,590.844 L 269.671,590.051 C 268.77,589.648 268.382,589.047 268.216,588.617 C 268.053,588.185 267.942,587.483 268.343,586.579 L 279.953,560.628 C 280.409,559.61 281.234,559.027 282.212,559.027 C 282.605,559.027 283.011,559.12 283.422,559.304 L 285.497,560.232 C 286.955,560.886 287.474,562.246 286.823,563.702 Z" fill="#00ae4d" stroke-linejoin="miter" fill-rule="nonzero" stroke-width="0.659" stroke="none" marker-start="none" marker-end="none" stroke-miterlimit="10000"/>
  <path d="M 314.915,576.245 L 314.266,577.534 C 313.586,578.844 312.637,579.039 312.134,579.039 C 311.609,579.039 311.087,578.844 310.583,578.459 C 309.698,577.782 308.472,577.046 307.531,576.624 C 306.872,576.329 306.294,576.179 305.812,576.179 C 305.097,576.179 304.154,576.458 303.186,578.628 L 296.013,594.657 L 301.317,597.032 C 302.775,597.683 303.294,599.043 302.643,600.501 L 302.113,601.685 C 301.478,603.108 300.091,603.654 298.644,603.011 L 293.34,600.636 L 290.964,605.942 C 290.326,607.369 288.995,607.935 287.672,607.345 L 286.132,606.657 C 284.869,606.093 284.347,604.867 284.769,603.446 L 286.575,597.612 L 282.122,595.584 C 281.221,595.181 278.265,593.431 278.099,592.998 C 277.936,592.569 277.823,591.865 278.226,590.963 L 278.756,589.779 C 279.391,588.356 280.78,587.805 282.228,588.453 L 289.143,591.585 L 296.129,575.968 C 298.211,571.315 301.006,569.051 304.673,569.053 C 306.323,569.053 308.142,569.507 310.227,570.44 C 311.493,571.007 313.175,572.053 314.119,572.857 C 315.318,573.827 315.582,574.972 314.915,576.245 Z" fill="#00ae4d" stroke-linejoin="miter" fill-rule="nonzero" stroke-width="0.659" stroke="none" marker-start="none" marker-end="none" stroke-miterlimit="10000"/>
 </g>
</svg>
