<?xml version="1.0" standalone="no"?>
<!DOCTYPE svg PUBLIC "-//W3C//DTD SVG 1.1//EN" "http://www.w3.org/Graphics/SVG/1.1/DTD/svg11.dtd">
<!--Generator: Xara Designer (www.xara.com), SVG filter version: 6.6.0.13-->
<svg fill="none" fill-rule="evenodd" stroke="black" stroke-linejoin="bevel" stroke-miterlimit="10" font-family="Times New Roman" font-size="16" style="font-variant-ligatures:none" xmlns:xlink="http://www.w3.org/1999/xlink" xmlns="http://www.w3.org/2000/svg" version="1.1" overflow="visible" width="590.54pt" height="297.335pt" viewBox="4.542 -301.053 590.54 297.335">
 <defs>
	</defs>
 <g id="Layer 1" transform="scale(1 -1)" stroke-width="0.501">
  <g id="Group" fill-rule="nonzero" stroke-linejoin="miter" stroke="none" stroke-width="4.132" stroke-miterlimit="4">
   <path d="M 72.933,30.743 C 68.429,33.181 67.438,35.371 71.363,34.958 C 75.289,34.586 82.314,30.991 86.363,27.437 C 90.454,23.842 90.247,22.478 86.818,24.007 C 83.347,25.536 77.479,28.305 72.933,30.743 Z" fill="#e30613" marker-start="none" marker-end="none"/>
   <path d="M 52.52,47.189 C 48.223,51.61 47.851,56.032 52.066,56.652 C 56.28,57.272 63.388,53.181 67.396,47.891 C 71.446,42.561 70.991,38.759 67.024,39.048 C 63.099,39.338 56.818,42.767 52.52,47.189 Z" fill="#5b8d20" marker-start="none" marker-end="none"/>
   <path d="M 4.545,163.015 C 4.462,169.172 6.446,176.032 9.049,179.048 C 11.652,182.065 14.628,179.668 15.537,173.057 C 16.446,166.445 14.297,158.553 10.909,155.991 C 7.52,153.429 4.669,156.858 4.545,163.015 Z" fill="#95c11f" marker-start="none" marker-end="none"/>
   <path d="M 7.355,189.09 C 8.801,194.007 11.033,200.123 12.396,203.677 C 13.76,207.189 14.834,206.363 14.504,200.949 C 14.173,195.536 11.694,188.015 9.214,184.999 C 6.735,181.941 5.909,184.172 7.355,189.09 Z" fill="#f39200" marker-start="none" marker-end="none"/>
   <path d="M 112.272,16.321 C 117.355,15.908 124.793,12.933 128.057,9.999 C 131.363,7.065 129.545,6.032 124.876,7.602 C 120.206,9.172 114.132,11.734 110.413,13.511 C 106.735,15.329 107.19,16.734 112.272,16.321 Z" fill="#f39200" marker-start="none" marker-end="none"/>
   <path d="M 92.603,26.858 C 88.595,30.619 89.297,34.462 94.793,35.04 C 100.289,35.619 108.223,32.065 111.859,27.354 C 115.495,22.644 113.719,19.338 108.595,19.668 C 103.429,20.082 96.611,23.139 92.603,26.858 Z" fill="#95c11f" marker-start="none" marker-end="none"/>
   <path d="M 74.09,48.677 C 70.123,54.131 71.115,59.916 76.818,61.321 C 82.52,62.726 90.661,58.677 94.462,52.478 C 98.264,46.28 96.322,40.867 90.826,40.247 C 85.33,39.586 78.099,43.222 74.09,48.677 Z" fill="#f39200" marker-start="none" marker-end="none"/>
   <path d="M 20.867,177.189 C 19.834,183.883 22.355,191.569 26.735,194.999 C 31.074,198.429 36.239,195.949 37.975,188.883 C 39.669,181.858 36.818,173.222 31.776,170.164 C 26.694,167.148 21.9,170.536 20.867,177.189 Z" fill="#e30613" marker-start="none" marker-end="none"/>
   <path d="M 18.512,205.701 C 18.677,211.197 21.363,218.181 24.71,222.065 C 28.099,225.949 31.735,224.875 32.479,218.966 C 33.223,213.098 30.123,204.916 25.826,201.486 C 21.528,197.974 18.347,200.206 18.512,205.701 Z" fill="#95c11f" marker-start="none" marker-end="none"/>
   <path d="M 27.768,242.189 C 29.958,246.569 31.942,247.148 31.694,242.726 C 31.446,238.346 28.305,230.991 25,227.065 C 21.694,223.139 20.371,223.842 21.735,227.726 C 23.099,231.693 25.578,237.767 27.768,242.189 Z" fill="#e30613" marker-start="none" marker-end="none"/>
   <path d="M 140.95,16.982 C 147.314,17.809 155.289,15.123 158.099,11.156 C 160.909,7.23 157.809,4.09 151.859,4.09 C 145.867,4.09 138.966,6.528 135.743,9.627 C 132.52,12.726 134.545,16.156 140.95,16.982 Z" fill="#95c11f" marker-start="none" marker-end="none"/>
   <path d="M 120.041,28.346 C 116.446,33.181 118.553,38.594 125.33,40.206 C 132.066,41.776 140.619,38.387 143.884,32.891 C 147.148,27.354 144.132,22.313 137.727,21.445 C 131.281,20.536 123.636,23.553 120.041,28.346 Z" fill="#0080bd" marker-start="none" marker-end="none"/>
   <path d="M 103.057,54.503 C 99.338,60.825 101.57,67.891 108.553,70.082 C 115.495,72.272 124.421,68.346 127.933,61.486 C 131.487,54.627 128.471,47.891 121.694,46.239 C 114.917,44.586 106.818,48.222 103.057,54.503 Z" fill="#e30613" marker-start="none" marker-end="none"/>
   <path d="M 45.454,193.553 C 43.636,200.66 46.818,208.966 52.768,212.602 C 58.719,216.239 65.619,213.594 67.975,206.239 C 70.33,198.883 66.818,189.834 60.371,186.445 C 53.884,183.057 47.272,186.487 45.454,193.553 Z" fill="#f39200" marker-start="none" marker-end="none"/>
   <path d="M 38.966,224.09 C 38.099,230.04 41.363,237.561 46.528,241.487 C 51.694,245.371 57.396,243.966 59.008,237.767 C 60.619,231.569 56.942,223.139 51.074,219.462 C 45.206,215.743 39.834,218.139 38.966,224.09 Z" fill="#e30613" marker-start="none" marker-end="none"/>
   <path d="M 44.297,263.718 C 48.512,267.933 52.933,267.933 53.719,263.139 C 54.545,258.387 50.826,250.825 45.702,246.9 C 40.578,242.974 36.735,243.925 36.818,248.387 C 36.9,252.891 40.082,259.462 44.297,263.718 Z" fill="#95c11f" marker-start="none" marker-end="none"/>
   <path d="M 272.768,71.569 C 277.892,75.495 281.735,74.544 281.652,70.082 C 281.57,65.619 278.388,59.007 274.173,54.792 C 269.958,50.577 265.537,50.619 264.752,55.371 C 263.966,60.123 267.685,67.644 272.768,71.569 Z" fill="#f39200" marker-start="none" marker-end="none"/>
   <path d="M 259.504,80.784 C 257.892,86.982 261.57,95.412 267.438,99.09 C 273.347,102.726 278.677,100.371 279.545,94.42 C 280.413,88.47 277.148,80.949 271.983,77.024 C 266.776,73.139 261.074,74.586 259.504,80.784 Z" fill="#5b8d20" marker-start="none" marker-end="none"/>
   <path d="M 250.537,112.272 C 248.181,119.627 251.694,128.718 258.14,132.065 C 264.628,135.453 271.198,132.024 273.016,124.958 C 274.834,117.85 271.652,109.544 265.702,105.908 C 259.793,102.272 252.851,104.916 250.537,112.272 Z" fill="#e30613" marker-start="none" marker-end="none"/>
   <path d="M 293.512,91.404 C 296.818,95.329 298.14,94.627 296.776,90.743 C 295.413,86.817 292.892,80.743 290.702,76.321 C 288.512,71.941 286.528,71.363 286.776,75.784 C 287.066,80.123 290.247,87.478 293.512,91.404 Z" fill="#e30613" marker-start="none" marker-end="none"/>
   <path d="M 285.991,99.544 C 285.247,105.412 288.347,113.594 292.644,117.024 C 296.942,120.495 300.123,118.263 299.958,112.767 C 299.793,107.272 297.107,100.288 293.76,96.404 C 290.371,92.561 286.735,93.635 285.991,99.544 Z" fill="#83d0f5" marker-start="none" marker-end="none"/>
   <path d="M 280.578,129.586 C 278.843,136.61 281.735,145.247 286.776,148.305 C 291.818,151.363 296.611,147.974 297.644,141.321 C 298.677,134.627 296.157,126.941 291.776,123.511 C 287.438,120.04 282.272,122.52 280.578,129.586 Z" fill="#83d0f5" marker-start="none" marker-end="none"/>
   <path d="M 303.966,117.561 C 304.297,122.974 306.776,130.495 309.256,133.511 C 311.776,136.569 312.603,134.338 311.157,129.42 C 309.669,124.503 307.479,118.387 306.115,114.834 C 304.71,111.321 303.636,112.148 303.966,117.561 Z" fill="#5b8d20" marker-start="none" marker-end="none"/>
   <path d="M 302.933,145.412 C 302.024,152.024 304.173,159.916 307.562,162.478 C 310.95,165.04 313.801,161.61 313.925,155.453 C 314.008,149.296 312.024,142.437 309.421,139.42 C 306.859,136.445 303.884,138.801 302.933,145.412 Z" fill="#e30613" marker-start="none" marker-end="none"/>
   <path d="M 276.57,182.106 C 282.066,184.751 288.099,180.66 290.247,173.346 C 292.355,166.032 290.123,157.974 285.041,154.958 C 279.958,151.941 273.553,155.412 270.991,163.139 C 268.429,170.867 271.074,179.503 276.57,182.106 Z" fill="#f39200" marker-start="none" marker-end="none"/>
   <path d="M 257.644,199.172 C 254.421,206.982 256.776,215.123 262.479,217.23 C 268.223,219.338 275.082,215.04 278.099,207.726 C 281.115,200.412 279.256,192.478 273.719,189.875 C 268.223,187.272 260.867,191.363 257.644,199.172 Z" fill="#83d0f5" marker-start="none" marker-end="none"/>
   <path d="M 300.082,193.966 C 304.049,196.032 308.471,191.941 310,185.206 C 311.487,178.429 309.958,171.239 306.487,168.718 C 303.057,166.197 298.429,169.668 296.404,176.9 C 294.38,184.131 296.115,191.941 300.082,193.966 Z" fill="#0080bd" marker-start="none" marker-end="none"/>
   <path d="M 284.834,210.495 C 281.859,217.726 283.099,224.834 287.355,226.28 C 291.611,227.726 297.148,223.47 299.917,216.776 C 302.644,210.082 301.694,203.139 297.685,201.115 C 293.719,199.131 287.809,203.222 284.834,210.495 Z" fill="#e30613" marker-start="none" marker-end="none"/>
   <path d="M 174.71,23.842 C 181.818,25.825 189.71,23.553 192.024,18.966 C 194.338,14.379 190.537,9.544 183.842,8.098 C 177.148,6.652 169.876,8.635 167.148,12.685 C 164.421,16.734 167.603,21.817 174.71,23.842 Z" fill="#e30613" marker-start="none" marker-end="none"/>
   <path d="M 153.471,35.329 C 150.289,40.949 153.429,47.726 160.909,50.206 C 168.388,52.685 177.066,49.544 179.876,43.511 C 182.727,37.478 178.966,31.073 171.859,29.048 C 164.71,26.982 156.652,29.71 153.471,35.329 Z" fill="#95c11f" marker-start="none" marker-end="none"/>
   <path d="M 137.975,64.668 C 134.462,71.61 137.685,79.71 145.413,82.561 C 153.14,85.412 162.314,81.61 165.578,74.338 C 168.842,67.065 165.165,59.296 157.644,56.776 C 150.123,54.296 141.446,57.726 137.975,64.668 Z" fill="#0080bd" marker-start="none" marker-end="none"/>
   <path d="M 67.52,242.767 C 65.826,249.007 69.586,256.61 76.074,260.247 C 82.561,263.842 89.71,261.982 91.983,255.701 C 94.256,249.42 90.33,241.073 83.305,237.561 C 76.239,234.007 69.214,236.569 67.52,242.767 Z" fill="#5b8d20" marker-start="none" marker-end="none"/>
   <path d="M 69.752,283.511 C 75.495,287.189 81.611,286.445 83.223,281.569 C 84.834,276.693 80.867,269.503 74.421,265.867 C 67.975,262.272 62.107,263.635 61.198,268.429 C 60.247,273.263 64.008,279.834 69.752,283.511 Z" fill="#83d0f5" marker-start="none" marker-end="none"/>
   <path d="M 210.247,36.115 C 217.355,39.048 224.586,37.23 226.322,32.396 C 228.016,27.52 224.008,21.569 217.438,18.801 C 210.826,16.073 203.76,17.478 201.528,22.106 C 199.297,26.776 203.14,33.181 210.247,36.115 Z" fill="#83d0f5" marker-start="none" marker-end="none"/>
   <path d="M 190.041,47.148 C 187.272,53.222 191.033,60.991 198.636,64.172 C 206.239,67.313 214.38,64.503 216.735,58.222 C 219.09,51.941 215.082,44.71 207.933,41.734 C 200.785,38.759 192.851,41.073 190.041,47.148 Z" fill="#5b8d20" marker-start="none" marker-end="none"/>
   <path d="M 176.239,78.429 C 173.016,85.743 176.735,94.586 184.669,97.85 C 192.603,101.156 201.487,97.52 204.38,90.082 C 207.272,82.644 203.388,74.255 195.743,71.073 C 188.14,67.933 179.462,71.115 176.239,78.429 Z" fill="#e30613" marker-start="none" marker-end="none"/>
   <path d="M 101.776,260.288 C 99.421,266.569 103.429,273.801 110.578,276.776 C 117.727,279.751 125.702,277.437 128.471,271.321 C 131.239,265.247 127.479,257.478 119.876,254.296 C 112.272,251.197 104.09,254.007 101.776,260.288 Z" fill="#f39200" marker-start="none" marker-end="none"/>
   <path d="M 101.074,299.668 C 107.685,302.396 114.752,300.991 116.983,296.363 C 119.214,291.734 115.371,285.329 108.264,282.396 C 101.157,279.462 93.884,281.28 92.19,286.115 C 90.495,290.949 94.504,296.941 101.074,299.668 Z" fill="#e30613" marker-start="none" marker-end="none"/>
   <path d="M 244.09,52.561 C 250.537,56.156 256.404,54.792 257.314,49.999 C 258.223,45.206 254.504,38.635 248.76,34.958 C 243.016,31.28 236.9,32.024 235.289,36.9 C 233.677,41.734 237.644,48.966 244.09,52.561 Z" fill="#e30613" marker-start="none" marker-end="none"/>
   <path d="M 226.528,62.809 C 224.256,69.09 228.181,77.437 235.206,80.949 C 242.231,84.503 249.297,81.941 250.991,75.701 C 252.685,69.462 248.925,61.858 242.438,58.222 C 235.95,54.627 228.76,56.486 226.528,62.809 Z" fill="#0080bd" marker-start="none" marker-end="none"/>
   <path d="M 214.793,94.751 C 211.942,102.189 215.743,111.363 223.264,114.834 C 230.743,118.305 238.76,114.834 241.198,107.437 C 243.636,100.04 239.917,91.528 232.851,87.974 C 225.743,84.42 217.644,87.272 214.793,94.751 Z" fill="#83d0f5" marker-start="none" marker-end="none"/>
   <path d="M 129.421,118.429 C 137.272,121.569 146.652,117.437 150.123,109.338 C 153.595,101.239 149.958,92.437 142.19,89.544 C 134.421,86.693 125.413,90.619 121.859,98.47 C 118.264,106.321 121.57,115.329 129.421,118.429 Z" fill="#83d0f5" marker-start="none" marker-end="none"/>
   <path d="M 105.537,136.073 C 102.107,144.338 105.537,153.635 113.305,156.982 C 121.074,160.288 130.371,156.239 133.842,147.768 C 137.355,139.338 133.677,129.916 125.826,126.776 C 117.975,123.635 108.966,127.85 105.537,136.073 Z" fill="#e30613" marker-start="none" marker-end="none"/>
   <path d="M 169.421,134.668 C 177.52,138.015 186.859,133.966 190.123,125.784 C 193.429,117.602 189.586,108.387 181.652,105.123 C 173.719,101.817 164.504,105.619 161.033,113.759 C 157.603,121.858 161.322,131.28 169.421,134.668 Z" fill="#95c11f" marker-start="none" marker-end="none"/>
   <path d="M 144.876,152.354 C 141.363,160.784 145.123,170.371 153.264,173.759 C 161.404,177.106 170.826,173.015 174.297,164.544 C 177.809,156.115 174.049,146.528 165.909,143.139 C 157.809,139.792 148.388,143.925 144.876,152.354 Z" fill="#f39200" marker-start="none" marker-end="none"/>
   <path d="M 35.123,84.214 C 39.38,85.577 46.115,81.28 49.793,74.751 C 53.471,68.181 52.685,62.478 48.429,61.817 C 44.214,61.156 38.016,65.164 34.297,70.991 C 30.578,76.817 30.826,82.85 35.123,84.214 Z" fill="#f39200" marker-start="none" marker-end="none"/>
   <path d="M 19.09,100.453 C 16.322,107.106 17.231,114.048 21.239,116.032 C 25.247,118.015 31.198,113.883 34.173,106.652 C 37.19,99.42 35.95,92.354 31.694,90.949 C 27.479,89.544 21.9,93.801 19.09,100.453 Z" fill="#5b8d20" marker-start="none" marker-end="none"/>
   <path d="M 8.801,132.024 C 7.231,138.801 8.76,145.991 12.231,148.511 C 15.702,151.032 20.371,147.52 22.438,140.247 C 24.504,133.015 22.809,125.206 18.801,123.181 C 14.834,121.156 10.371,125.247 8.801,132.024 Z" fill="#f39200" marker-start="none" marker-end="none"/>
   <path d="M 60.123,92.478 C 65.867,94.503 73.842,90.247 77.479,82.974 C 81.115,75.701 79.049,68.718 73.347,67.272 C 67.603,65.825 60.33,69.958 56.652,76.61 C 52.975,83.305 54.38,90.412 60.123,92.478 Z" fill="#e30613" marker-start="none" marker-end="none"/>
   <path d="M 40.95,109.42 C 37.892,116.734 39.71,124.627 45.289,127.189 C 50.826,129.751 58.223,125.66 61.487,117.85 C 64.71,110.04 62.396,101.941 56.652,99.875 C 50.909,97.809 44.008,102.148 40.95,109.42 Z" fill="#83d0f5" marker-start="none" marker-end="none"/>
   <path d="M 28.677,143.759 C 26.528,151.073 28.76,159.131 33.842,162.148 C 38.925,165.164 45.371,161.652 47.975,153.925 C 50.578,146.197 47.975,137.561 42.438,134.958 C 36.9,132.354 30.826,136.445 28.677,143.759 Z" fill="#0080bd" marker-start="none" marker-end="none"/>
   <path d="M 92.107,104.048 C 99.132,106.734 108.016,102.52 111.611,94.751 C 115.206,86.982 112.148,78.883 105.165,76.693 C 98.181,74.462 89.876,78.553 86.239,85.908 C 82.644,93.222 85.082,101.404 92.107,104.048 Z" fill="#0080bd" marker-start="none" marker-end="none"/>
   <path d="M 70.165,121.486 C 66.9,129.338 69.628,138.098 76.487,141.156 C 83.347,144.214 91.942,140.123 95.33,131.9 C 98.719,123.677 95.578,114.751 88.553,112.065 C 81.528,109.338 73.429,113.635 70.165,121.486 Z" fill="#95c11f" marker-start="none" marker-end="none"/>
   <path d="M 56.239,158.057 C 53.595,165.825 56.57,174.586 63.099,177.974 C 69.628,181.321 77.52,177.767 80.495,169.71 C 83.471,161.652 80.165,152.396 73.305,149.338 C 66.446,146.239 58.925,150.288 56.239,158.057 Z" fill="#5b8d20" marker-start="none" marker-end="none"/>
  </g>
  <g id="Group_1" fill="#1d1d1b" fill-rule="nonzero" stroke-linejoin="miter" stroke="none" stroke-width="4.132" stroke-miterlimit="4">
   <path d="M 313.925,4.586 L 313.925,50.949 L 318.966,50.949 L 318.966,22.85 C 323.966,27.478 328.925,32.478 333.884,37.85 L 340.206,37.85 C 335.826,33.057 330.661,28.015 324.752,22.726 C 329.297,16.982 334.71,10.949 341.033,4.586 L 334.297,4.586 C 329.586,9.751 325.289,14.916 321.446,19.999 L 318.966,19.999 L 318.966,4.586 L 313.925,4.586 Z" marker-start="none" marker-end="none"/>
   <path d="M 346.9,44.627 L 346.9,50.949 L 351.942,50.949 L 351.942,44.627 L 346.9,44.627 Z M 346.9,4.586 L 346.9,37.85 L 351.942,37.85 L 351.942,4.586 L 346.9,4.586 Z" marker-start="none" marker-end="none"/>
   <path d="M 361.446,6.115 L 361.446,50.949 L 366.487,50.949 L 366.487,35.619 C 369.421,37.602 372.52,38.553 375.785,38.553 C 380.082,38.553 383.181,37.106 385.165,34.214 C 387.148,31.321 388.14,26.9 388.14,20.949 C 388.14,15.082 387.107,10.743 385.041,7.974 C 382.975,5.205 379.545,3.801 374.752,3.801 C 370.165,3.842 365.702,4.627 361.446,6.115 Z M 366.487,8.842 C 369.421,8.305 372.024,8.015 374.256,8.015 C 377.644,8.015 380,9.007 381.239,11.032 C 382.479,13.057 383.099,16.28 383.099,20.743 C 383.099,25.412 382.479,28.801 381.281,30.908 C 380.041,33.015 377.892,34.049 374.793,34.049 C 371.818,34.049 369.049,33.263 366.487,31.652 L 366.487,8.842 Z" marker-start="none" marker-end="none"/>
   <path d="M 395.206,20.991 C 395.206,26.404 396.404,30.701 398.76,33.842 C 401.157,36.982 404.586,38.553 409.09,38.553 C 413.264,38.553 416.446,37.148 418.595,34.379 C 420.743,31.569 421.818,27.891 421.818,23.263 C 421.818,21.817 421.735,20.536 421.528,19.379 L 400.578,19.379 C 401.033,12.024 404.338,8.387 410.413,8.387 C 413.305,8.387 416.528,9.214 420.082,10.867 L 421.735,7.065 C 417.933,4.916 413.966,3.842 409.876,3.842 C 405.247,3.842 401.652,5.288 399.09,8.139 C 396.487,11.032 395.206,15.329 395.206,20.991 Z M 400.495,23.47 L 416.776,23.47 C 416.776,26.528 416.157,29.09 415,31.115 C 413.801,33.139 411.818,34.131 409.049,34.131 C 406.363,34.131 404.297,33.139 402.851,31.197 C 401.404,29.255 400.619,26.652 400.495,23.47 Z" marker-start="none" marker-end="none"/>
   <path d="M 427.52,5.206 L 428.305,9.503 C 432.272,8.677 435.661,8.263 438.429,8.263 C 443.966,8.263 446.735,10.082 446.735,13.677 C 446.735,15.247 446.198,16.363 445.123,17.065 C 444.049,17.767 441.983,18.594 438.925,19.462 C 437.19,20.04 435.826,20.495 434.917,20.784 C 433.966,21.115 432.851,21.61 431.611,22.354 C 430.371,23.098 429.421,24.048 428.884,25.123 C 428.305,26.239 428.016,27.52 428.016,29.048 C 428.016,32.106 429.173,34.462 431.446,36.073 C 433.76,37.685 436.776,38.511 440.537,38.511 C 443.553,38.511 446.694,38.139 449.917,37.437 L 449.256,33.098 C 445.95,33.718 443.057,34.048 440.537,34.048 C 438.14,34.048 436.28,33.635 434.999,32.809 C 433.677,31.982 433.057,30.825 433.057,29.296 C 433.057,28.924 433.099,28.594 433.181,28.305 C 433.264,28.015 433.388,27.726 433.595,27.478 C 433.801,27.189 433.966,26.982 434.132,26.776 C 434.297,26.569 434.586,26.404 434.999,26.156 C 435.413,25.949 435.743,25.784 436.033,25.66 C 436.322,25.577 436.776,25.412 437.313,25.247 L 438.677,24.792 C 439.008,24.668 439.545,24.503 440.289,24.255 L 442.107,23.635 C 445.454,22.561 447.933,21.362 449.462,19.999 C 451.032,18.635 451.776,16.569 451.776,13.842 C 451.776,10.453 450.578,7.933 448.181,6.239 C 445.785,4.586 442.479,3.718 438.223,3.718 C 434.876,3.842 431.322,4.296 427.52,5.206 Z" marker-start="none" marker-end="none"/>
   <path d="M 459.545,14.875 L 459.545,37.85 L 464.586,37.85 L 464.586,15.412 C 464.586,10.66 466.776,8.263 471.157,8.263 C 474.338,8.263 477.438,9.214 480.537,11.073 L 480.537,37.85 L 485.578,37.85 L 485.578,4.586 L 481.611,4.586 L 481.239,7.643 C 477.851,5.123 474.173,3.842 470.165,3.883 C 466.9,3.883 464.338,4.834 462.438,6.693 C 460.495,8.511 459.545,11.28 459.545,14.875 Z" marker-start="none" marker-end="none"/>
   <path d="M 495.371,44.627 L 495.371,50.949 L 500.413,50.949 L 500.413,44.627 L 495.371,44.627 Z M 495.371,4.586 L 495.371,37.85 L 500.413,37.85 L 500.413,4.586 L 495.371,4.586 Z" marker-start="none" marker-end="none"/>
   <path d="M 508.636,5.206 L 509.421,9.503 C 513.388,8.677 516.776,8.263 519.545,8.263 C 525.082,8.263 527.851,10.082 527.851,13.677 C 527.851,15.247 527.314,16.363 526.239,17.065 C 525.165,17.767 523.099,18.594 520.041,19.462 C 518.305,20.04 516.942,20.495 516.033,20.784 C 515.082,21.115 513.966,21.61 512.727,22.354 C 511.487,23.098 510.578,24.048 509.999,25.123 C 509.421,26.239 509.132,27.52 509.132,29.048 C 509.132,32.106 510.289,34.462 512.561,36.073 C 514.876,37.685 517.892,38.511 521.652,38.511 C 524.669,38.511 527.809,38.139 531.033,37.437 L 530.371,33.098 C 527.066,33.718 524.173,34.048 521.652,34.048 C 519.256,34.048 517.396,33.635 516.115,32.809 C 514.793,31.982 514.173,30.825 514.173,29.296 C 514.173,28.924 514.214,28.594 514.297,28.305 C 514.38,28.015 514.504,27.726 514.71,27.478 C 514.917,27.189 515.082,26.982 515.247,26.776 C 515.413,26.569 515.702,26.404 516.115,26.156 C 516.528,25.949 516.859,25.784 517.148,25.66 C 517.437,25.577 517.892,25.412 518.429,25.247 L 519.793,24.792 C 520.123,24.668 520.661,24.503 521.404,24.255 L 523.223,23.635 C 526.57,22.561 529.049,21.362 530.578,19.999 C 532.148,18.635 532.892,16.569 532.892,13.842 C 532.892,10.453 531.694,7.933 529.297,6.239 C 526.9,4.586 523.595,3.718 519.338,3.718 C 515.991,3.842 512.438,4.296 508.636,5.206 Z" marker-start="none" marker-end="none"/>
   <path d="M 538.223,5.206 L 539.008,9.503 C 542.975,8.677 546.363,8.263 549.132,8.263 C 554.669,8.263 557.438,10.082 557.438,13.677 C 557.438,15.247 556.9,16.363 555.826,17.065 C 554.752,17.767 552.685,18.594 549.628,19.462 C 547.892,20.04 546.528,20.495 545.619,20.784 C 544.669,21.115 543.553,21.61 542.314,22.354 C 541.074,23.098 540.165,24.048 539.586,25.123 C 539.008,26.239 538.718,27.52 538.718,29.048 C 538.718,32.106 539.875,34.462 542.148,36.073 C 544.462,37.685 547.479,38.511 551.239,38.511 C 554.256,38.511 557.396,38.139 560.619,37.437 L 559.958,33.098 C 556.652,33.718 553.76,34.048 551.239,34.048 C 548.842,34.048 546.983,33.635 545.702,32.809 C 544.38,31.982 543.76,30.825 543.76,29.296 C 543.76,28.924 543.801,28.594 543.884,28.305 C 543.966,28.015 544.09,27.726 544.297,27.478 C 544.504,27.189 544.669,26.982 544.834,26.776 C 544.999,26.569 545.289,26.404 545.702,26.156 C 546.115,25.949 546.446,25.784 546.735,25.66 C 547.024,25.577 547.479,25.412 548.016,25.247 L 549.38,24.792 C 549.71,24.668 550.247,24.503 550.991,24.255 L 552.809,23.635 C 556.157,22.561 558.636,21.362 560.165,19.999 C 561.735,18.635 562.479,16.569 562.479,13.842 C 562.479,10.453 561.281,7.933 558.884,6.239 C 556.487,4.586 553.181,3.718 548.925,3.718 C 545.578,3.842 542.024,4.296 538.223,5.206 Z" marker-start="none" marker-end="none"/>
   <path d="M 568.471,20.991 C 568.471,26.404 569.669,30.701 572.024,33.842 C 574.421,36.982 577.851,38.553 582.355,38.553 C 586.528,38.553 589.71,37.148 591.859,34.379 C 594.008,31.569 595.082,27.891 595.082,23.263 C 595.082,21.817 595,20.536 594.793,19.379 L 573.842,19.379 C 574.297,12.024 577.603,8.387 583.677,8.387 C 586.57,8.387 589.793,9.214 593.347,10.867 L 595,7.065 C 591.198,4.916 587.231,3.842 583.14,3.842 C 578.512,3.842 574.917,5.288 572.355,8.139 C 569.752,11.032 568.471,15.329 568.471,20.991 Z M 573.76,23.47 L 590.041,23.47 C 590.041,26.528 589.421,29.09 588.264,31.115 C 587.066,33.139 585.082,34.131 582.314,34.131 C 579.628,34.131 577.562,33.139 576.115,31.197 C 574.669,29.255 573.884,26.652 573.76,23.47 Z" marker-start="none" marker-end="none"/>
  </g>
 </g>
</svg>
