<?xml version="1.0" standalone="no"?>
<!DOCTYPE svg PUBLIC "-//W3C//DTD SVG 1.1//EN" "http://www.w3.org/Graphics/SVG/1.1/DTD/svg11.dtd">
<!--Generator: Xara Designer (www.xara.com), SVG filter version: 6.6.0.13-->
<svg fill="none" fill-rule="evenodd" stroke="black" stroke-linejoin="bevel" stroke-miterlimit="10" font-family="Times New Roman" font-size="16" style="font-variant-ligatures:none" xmlns:xlink="http://www.w3.org/1999/xlink" xmlns="http://www.w3.org/2000/svg" version="1.1" overflow="visible" width="548.022pt" height="561.827pt" viewBox="6.195 -576.199 548.022 561.827">
 <defs>
	</defs>
 <g id="Layer 1" transform="scale(1 -1)" stroke-width="0.501">
  <path d="M 554.217,220.113 C 554.217,277.356 529.437,298.358 491.337,298.358 C 453.236,298.358 426.907,274.259 426.907,218.378 C 426.907,160.887 451.006,140.32 489.354,140.32 C 527.702,140.32 554.217,164.171 554.217,220.113 M 461.29,220.547 C 461.29,258.709 472.875,270.542 489.354,270.542 C 507.94,270.542 519.648,256.974 519.648,218.564 C 519.648,180.154 508.869,168.136 491.337,168.136 C 472.751,168.136 461.29,181.765 461.29,220.547" fill-rule="nonzero" stroke-linejoin="miter" fill="#00ab89" stroke-width="6.195" stroke="none" stroke-miterlimit="4"/>
  <path d="M 356.716,168.569 C 341.889,169.378 327.998,176.068 318.12,187.155 L 299.101,159.587 C 304.367,153.391 322.767,140.505 352.318,140.505 C 391.347,140.505 410.428,162.87 410.428,185.854 C 410.428,234.796 339.803,231.017 339.803,255.797 C 339.803,263.479 345.999,269.612 356.964,269.612 C 368.246,269.691 378.894,264.402 385.647,255.363 L 406.463,280.144 C 401.445,286.711 385.462,298.73 359.814,298.73 C 328.033,298.73 305.668,278.781 305.668,253.381 C 305.668,204.935 376.479,208.218 376.479,183.871 C 376.479,175.756 370.284,168.941 356.716,168.941" fill-rule="nonzero" stroke-linejoin="miter" fill="#0082b6" stroke-width="6.195" stroke="none" stroke-miterlimit="4"/>
  <path d="M 201.28,220.733 L 201.28,219.865 L 248.425,142.55 L 290.304,142.55 L 237.707,221.414 L 285.472,296.128 L 246.876,296.128 Z M 200.413,296.128 L 166.897,296.128 L 166.897,142.488 L 200.413,142.488 Z" fill-rule="nonzero" stroke-linejoin="miter" fill="#f5d200" stroke-width="6.195" stroke="none" marker-start="none" marker-end="none" stroke-miterlimit="4"/>
  <path d="M 55.756,142.55 L 99.122,142.55 L 148.683,296.437 L 113.185,296.437 L 89.519,213.051 C 85.369,198.182 82.085,184.553 79.235,170.304 L 78.306,170.304 C 75.271,185.049 71.306,198.616 67.403,212.865 L 43.675,296.437 L 6.195,296.437 Z" fill-rule="nonzero" stroke-linejoin="miter" fill="#ea8c30" stroke-width="6.195" stroke="none" marker-start="none" marker-end="none" stroke-miterlimit="4"/>
  <path d="M 323.146,39.845 C 320.656,41.653 320.102,45.141 321.91,47.632 C 421.917,185.393 353.191,282.331 301.872,328.7 L 301.723,328.754 L 75.925,410.449 L 26.425,576.199 L 197.425,549.574 L 310.757,335.658 L 310.739,335.693 C 364.685,286.435 435.288,184.832 330.933,41.081 C 329.125,38.591 325.637,38.037 323.146,39.845 Z" fill="#ffffff" stroke-width="0.5" fill-rule="evenodd" stroke="none" marker-start="none" marker-end="none"/>
  <path d="M 74.276,417.242 L 29.211,566.189 L 128.614,479.759 L 74.276,417.242 Z" fill="#00ab89" stroke-width="6.195" stroke-linejoin="miter" fill-rule="nonzero" stroke="none" marker-start="none" marker-end="none" stroke-miterlimit="4"/>
  <path d="M 135.929,488.174 L 36.525,574.606 L 190.267,550.692 L 135.929,488.174 Z" fill="#f5d200" stroke-width="6.195" stroke-linejoin="miter" fill-rule="nonzero" stroke="none" marker-start="none" marker-end="none" stroke-miterlimit="4"/>
  <path d="M 302.841,328.338 L 81.402,408.445 L 137.029,472.444 L 302.841,328.338 Z" fill="#ea8c30" stroke-width="6.195" stroke-linejoin="miter" fill-rule="nonzero" stroke="none" marker-start="none" marker-end="none" stroke-miterlimit="4"/>
  <path d="M 310.156,336.753 L 144.344,480.859 L 199.97,544.859 L 310.156,336.753 Z" fill="#0082b6" stroke-width="6.195" stroke-linejoin="miter" fill-rule="nonzero" stroke="none" marker-start="none" marker-end="none" stroke-miterlimit="4"/>
  <g id="Group" fill-rule="nonzero" stroke-linejoin="miter" stroke="none" stroke-width="6.195" fill="#231f20" stroke-miterlimit="4">
   <g id="Group_1">
    <path d="M 42.087,73.598 L 30.98,108.542 L 35.079,108.542 L 42.54,83.157 C 43.112,81.186 43.613,79.279 44.042,77.436 C 44.487,79.358 44.996,81.265 45.568,83.157 L 53.314,108.542 L 57.176,108.542 L 45.973,73.598 L 42.087,73.598 Z" marker-start="none" marker-end="none"/>
    <path d="M 75.732,81.75 L 79.355,81.202 C 78.751,78.5 77.659,76.462 76.078,75.088 C 74.496,73.713 72.538,73.026 70.202,73.026 C 67.262,73.026 64.882,74.142 63.062,76.375 C 61.243,78.607 60.333,81.829 60.333,86.041 C 60.333,90.411 61.251,93.744 63.087,96.04 C 64.922,98.336 67.246,99.484 70.059,99.484 C 72.744,99.484 74.985,98.356 76.781,96.1 C 78.577,93.843 79.474,90.577 79.474,86.303 L 79.45,85.159 L 63.957,85.159 C 64.1,82.314 64.76,80.169 65.935,78.723 C 67.112,77.277 68.541,76.553 70.226,76.553 C 72.864,76.553 74.699,78.286 75.732,81.75 Z M 64.171,88.686 L 75.755,88.686 C 75.597,90.879 75.128,92.516 74.349,93.597 C 73.221,95.17 71.783,95.956 70.035,95.957 C 68.461,95.956 67.119,95.3 66.006,93.99 C 64.894,92.679 64.282,90.911 64.171,88.686 Z" marker-start="none" marker-end="none"/>
    <path d="M 85.253,73.598 L 85.253,98.912 L 88.424,98.912 L 88.424,95.075 C 89.234,96.854 89.977,98.034 90.652,98.614 C 91.328,99.194 92.086,99.484 92.928,99.484 C 94.105,99.484 95.305,99.023 96.528,98.102 L 95.336,94.121 C 94.462,94.741 93.612,95.051 92.785,95.051 C 92.039,95.051 91.355,94.788 90.736,94.264 C 90.116,93.74 89.679,93.009 89.425,92.071 C 88.98,90.434 88.757,88.695 88.757,86.851 L 88.757,73.598 L 85.253,73.598 Z" marker-start="none" marker-end="none"/>
    <path d="M 114.249,81.75 L 117.872,81.202 C 117.268,78.5 116.176,76.462 114.595,75.088 C 113.013,73.713 111.055,73.026 108.719,73.026 C 105.779,73.026 103.399,74.142 101.579,76.375 C 99.76,78.607 98.85,81.829 98.85,86.041 C 98.85,90.411 99.768,93.744 101.604,96.04 C 103.439,98.336 105.763,99.484 108.576,99.484 C 111.261,99.484 113.502,98.356 115.298,96.1 C 117.094,93.843 117.991,90.577 117.991,86.303 L 117.967,85.159 L 102.474,85.159 C 102.617,82.314 103.277,80.169 104.452,78.723 C 105.629,77.277 107.058,76.553 108.743,76.553 C 111.381,76.553 113.216,78.286 114.249,81.75 Z M 102.688,88.686 L 114.272,88.686 C 114.114,90.879 113.645,92.516 112.866,93.597 C 111.738,95.17 110.3,95.956 108.552,95.957 C 106.978,95.956 105.636,95.3 104.523,93.99 C 103.411,92.679 102.799,90.911 102.688,88.686 Z" marker-start="none" marker-end="none"/>
    <path d="M 123.77,103.608 L 123.77,108.542 L 127.274,108.542 L 127.274,103.608 L 123.77,103.608 Z M 123.77,73.598 L 123.77,98.912 L 127.274,98.912 L 127.274,73.598 L 123.77,73.598 Z" marker-start="none" marker-end="none"/>
    <path d="M 134.126,73.598 L 134.126,98.912 L 137.297,98.912 L 137.297,95.313 C 138.059,96.711 138.992,97.756 140.098,98.447 C 141.201,99.139 142.469,99.484 143.899,99.484 C 145.011,99.484 146.04,99.265 146.986,98.829 C 147.931,98.391 148.694,97.82 149.274,97.113 C 149.854,96.406 150.287,95.488 150.574,94.359 C 150.86,93.231 151.003,91.499 151.003,89.163 L 151.003,73.598 L 147.474,73.598 L 147.474,88.996 C 147.474,90.855 147.316,92.214 146.998,93.072 C 146.68,93.93 146.183,94.594 145.508,95.062 C 144.833,95.532 144.05,95.766 143.16,95.766 C 141.476,95.766 140.134,95.138 139.132,93.883 C 138.131,92.628 137.63,90.474 137.63,87.423 L 137.63,73.598 L 134.126,73.598 Z" marker-start="none" marker-end="none"/>
    <path d="M 170.832,73.598 L 170.832,108.542 L 174.623,108.542 L 174.623,91.213 L 188.853,108.542 L 194.001,108.542 L 181.964,94.383 L 194.526,73.598 L 189.52,73.598 L 179.318,91.285 L 174.623,85.707 L 174.623,73.598 L 170.832,73.598 Z" marker-start="none" marker-end="none"/>
    <path d="M 198.613,103.608 L 198.613,108.542 L 202.117,108.542 L 202.117,103.608 L 198.613,103.608 Z M 198.613,73.598 L 198.613,98.912 L 202.117,98.912 L 202.117,73.598 L 198.613,73.598 Z" marker-start="none" marker-end="none"/>
    <path d="M 208.969,73.598 L 208.969,98.912 L 212.14,98.912 L 212.14,95.313 C 212.902,96.711 213.835,97.756 214.941,98.447 C 216.044,99.139 217.312,99.484 218.742,99.484 C 219.854,99.484 220.883,99.265 221.829,98.829 C 222.774,98.391 223.537,97.82 224.117,97.113 C 224.697,96.406 225.13,95.488 225.417,94.359 C 225.703,93.231 225.846,91.499 225.846,89.163 L 225.846,73.598 L 222.317,73.598 L 222.317,88.996 C 222.317,90.855 222.159,92.214 221.841,93.072 C 221.523,93.93 221.026,94.594 220.351,95.062 C 219.676,95.532 218.893,95.766 218.003,95.766 C 216.319,95.766 214.977,95.138 213.975,93.883 C 212.974,92.628 212.473,90.474 212.473,87.423 L 212.473,73.598 L 208.969,73.598 Z" marker-start="none" marker-end="none"/>
    <path d="M 246.165,73.598 L 246.165,76.792 C 245.529,75.568 244.711,74.635 243.71,73.991 C 242.709,73.347 241.628,73.026 240.468,73.026 C 238.021,73.026 235.904,74.182 234.116,76.494 C 232.328,78.806 231.434,82.06 231.434,86.255 C 231.434,89.132 231.831,91.571 232.626,93.573 C 233.42,95.575 234.481,97.061 235.808,98.03 C 237.135,99 238.609,99.484 240.229,99.484 C 241.389,99.484 242.466,99.178 243.459,98.566 C 244.453,97.954 245.275,97.101 245.927,96.004 L 245.927,108.542 L 249.454,108.542 L 249.454,73.598 L 246.165,73.598 Z M 235.033,86.231 C 235.033,82.958 235.601,80.527 236.738,78.937 C 237.874,77.348 239.197,76.553 240.706,76.553 C 242.2,76.553 243.495,77.316 244.592,78.842 C 245.688,80.367 246.237,82.672 246.237,85.755 C 246.237,89.299 245.688,91.885 244.592,93.513 C 243.495,95.142 242.112,95.956 240.444,95.957 C 238.966,95.956 237.695,95.174 236.631,93.609 C 235.565,92.043 235.033,89.584 235.033,86.231 Z" marker-start="none" marker-end="none"/>
    <path d="M 270.632,81.75 L 274.255,81.202 C 273.651,78.5 272.559,76.462 270.978,75.088 C 269.396,73.713 267.438,73.026 265.102,73.026 C 262.162,73.026 259.782,74.142 257.962,76.375 C 256.143,78.607 255.233,81.829 255.233,86.041 C 255.233,90.411 256.151,93.744 257.987,96.04 C 259.822,98.336 262.146,99.484 264.959,99.484 C 267.644,99.484 269.885,98.356 271.681,96.1 C 273.477,93.843 274.374,90.577 274.374,86.303 L 274.35,85.159 L 258.857,85.159 C 259,82.314 259.66,80.169 260.835,78.723 C 262.012,77.277 263.441,76.553 265.126,76.553 C 267.764,76.553 269.599,78.286 270.632,81.75 Z M 259.071,88.686 L 270.655,88.686 C 270.497,90.879 270.028,92.516 269.249,93.597 C 268.121,95.17 266.683,95.956 264.935,95.957 C 263.361,95.956 262.019,95.3 260.906,93.99 C 259.794,92.679 259.182,90.911 259.071,88.686 Z" marker-start="none" marker-end="none"/>
    <path d="M 280.153,73.598 L 280.153,98.912 L 283.324,98.912 L 283.324,95.075 C 284.134,96.854 284.877,98.034 285.552,98.614 C 286.228,99.194 286.986,99.484 287.828,99.484 C 289.005,99.484 290.205,99.023 291.428,98.102 L 290.236,94.121 C 289.362,94.741 288.512,95.051 287.685,95.051 C 286.939,95.051 286.255,94.788 285.636,94.264 C 285.016,93.74 284.579,93.009 284.325,92.071 C 283.88,90.434 283.657,88.695 283.657,86.851 L 283.657,73.598 L 280.153,73.598 Z" marker-start="none" marker-end="none"/>
    <path d="M 302.784,77.436 L 303.261,73.645 C 302.291,73.391 301.417,73.264 300.639,73.264 C 299.415,73.264 298.43,73.506 297.684,73.991 C 296.936,74.476 296.424,75.14 296.146,75.982 C 295.868,76.824 295.729,78.501 295.729,81.011 L 295.729,95.575 L 293.154,95.575 L 293.154,98.912 L 295.729,98.912 L 295.729,105.181 L 299.233,107.755 L 299.233,98.912 L 302.784,98.912 L 302.784,95.575 L 299.233,95.575 L 299.233,80.773 C 299.233,79.406 299.336,78.524 299.543,78.127 C 299.844,77.555 300.409,77.269 301.235,77.269 C 301.632,77.269 302.149,77.324 302.784,77.436 Z" marker-start="none" marker-end="none"/>
    <path d="M 321.079,76.72 C 319.902,75.497 318.678,74.576 317.408,73.955 C 316.136,73.336 314.817,73.026 313.451,73.026 C 311.289,73.026 309.565,73.677 308.278,74.98 C 306.991,76.284 306.347,78.04 306.347,80.249 C 306.347,81.71 306.649,83.005 307.253,84.134 C 307.857,85.262 308.684,86.143 309.732,86.779 C 310.781,87.414 312.37,87.884 314.5,88.186 C 317.36,88.599 319.457,89.091 320.792,89.663 L 320.816,90.76 C 320.816,92.493 320.506,93.708 319.887,94.407 C 319.013,95.424 317.67,95.932 315.858,95.932 C 314.221,95.932 312.998,95.595 312.187,94.919 C 311.377,94.244 310.781,92.977 310.4,91.118 L 306.943,91.69 C 307.436,94.407 308.433,96.386 309.935,97.625 C 311.437,98.865 313.586,99.484 316.383,99.484 C 318.56,99.484 320.268,99.075 321.507,98.257 C 322.747,97.438 323.53,96.425 323.855,95.218 C 324.181,94.01 324.344,92.246 324.344,89.926 L 324.344,84.205 C 324.344,80.2 324.42,77.678 324.57,76.637 C 324.722,75.596 325.019,74.583 325.464,73.598 L 321.793,73.598 C 321.428,74.472 321.19,75.513 321.079,76.72 Z M 320.792,86.303 C 319.505,85.667 317.59,85.127 315.048,84.682 C 313.57,84.427 312.537,84.137 311.949,83.812 C 311.361,83.486 310.904,83.026 310.578,82.429 C 310.253,81.834 310.09,81.146 310.09,80.367 C 310.09,79.16 310.463,78.194 311.21,77.471 C 311.957,76.748 312.99,76.387 314.309,76.387 C 315.564,76.387 316.704,76.713 317.729,77.364 C 318.754,78.016 319.521,78.886 320.03,79.974 C 320.538,81.063 320.792,82.648 320.792,84.73 L 320.792,86.303 Z" marker-start="none" marker-end="none"/>
    <path d="M 330.6,71.5 L 334.032,70.881 C 334.191,69.53 334.668,68.525 335.462,67.865 C 336.257,67.206 337.361,66.876 338.776,66.876 C 340.317,66.876 341.545,67.246 342.459,67.985 C 343.373,68.723 343.996,69.824 344.33,71.286 C 344.537,72.176 344.64,74.051 344.64,76.911 C 343.877,75.815 343.019,74.989 342.065,74.432 C 341.111,73.876 340.055,73.598 338.895,73.598 C 336.416,73.598 334.358,74.647 332.721,76.745 C 330.846,79.16 329.909,82.393 329.909,86.446 C 329.909,89.163 330.322,91.539 331.148,93.573 C 331.975,95.607 333.059,97.101 334.402,98.054 C 335.745,99.007 337.25,99.484 338.919,99.484 C 340.142,99.484 341.259,99.182 342.267,98.579 C 343.277,97.974 344.171,97.069 344.95,95.861 L 344.95,98.912 L 348.191,98.912 L 348.191,77.031 C 348.191,73.138 347.873,70.361 347.238,68.699 C 346.602,67.039 345.561,65.728 344.115,64.767 C 342.669,63.805 340.929,63.324 338.895,63.325 C 336.209,63.324 334.144,64.048 332.697,65.494 C 331.252,66.94 330.553,68.942 330.6,71.5 Z M 333.532,86.708 C 333.532,83.386 334.08,80.963 335.177,79.438 C 336.273,77.912 337.616,77.149 339.205,77.149 C 340.794,77.149 342.145,77.897 343.257,79.39 C 344.369,80.884 344.925,83.26 344.925,86.517 C 344.925,89.696 344.354,92.06 343.209,93.609 C 342.065,95.158 340.675,95.932 339.038,95.932 C 337.576,95.932 336.293,95.158 335.188,93.609 C 334.084,92.06 333.532,89.759 333.532,86.708 Z" marker-start="none" marker-end="none"/>
    <path d="M 369.202,81.75 L 372.825,81.202 C 372.221,78.5 371.129,76.462 369.548,75.088 C 367.966,73.713 366.008,73.026 363.672,73.026 C 360.732,73.026 358.352,74.142 356.532,76.375 C 354.713,78.607 353.803,81.829 353.803,86.041 C 353.803,90.411 354.721,93.744 356.557,96.04 C 358.392,98.336 360.716,99.484 363.529,99.484 C 366.214,99.484 368.455,98.356 370.251,96.1 C 372.047,93.843 372.944,90.577 372.944,86.303 L 372.92,85.159 L 357.427,85.159 C 357.57,82.314 358.23,80.169 359.405,78.723 C 360.582,77.277 362.011,76.553 363.696,76.553 C 366.334,76.553 368.169,78.286 369.202,81.75 Z M 357.641,88.686 L 369.225,88.686 C 369.067,90.879 368.598,92.516 367.819,93.597 C 366.691,95.17 365.253,95.956 363.505,95.957 C 361.931,95.956 360.589,95.3 359.476,93.99 C 358.364,92.679 357.752,90.911 357.641,88.686 Z" marker-start="none" marker-end="none"/>
    <path d="M 377.388,81.154 L 380.869,81.822 C 381.075,80.042 381.639,78.719 382.561,77.853 C 383.482,76.987 384.706,76.553 386.232,76.553 C 387.757,76.553 388.937,76.931 389.772,77.686 C 390.606,78.441 391.023,79.398 391.023,80.558 C 391.023,81.559 390.665,82.338 389.95,82.894 C 389.458,83.275 388.266,83.752 386.375,84.324 C 383.641,85.166 381.814,85.881 380.892,86.469 C 379.971,87.057 379.256,87.844 378.747,88.829 C 378.239,89.815 377.984,90.935 377.984,92.19 C 377.984,94.352 378.676,96.107 380.058,97.458 C 381.441,98.808 383.356,99.484 385.802,99.484 C 387.344,99.484 388.699,99.206 389.866,98.65 C 391.035,98.094 391.929,97.347 392.549,96.41 C 393.168,95.472 393.597,94.129 393.836,92.381 L 390.403,91.809 C 390.085,94.574 388.584,95.956 385.898,95.957 C 384.373,95.956 383.236,95.65 382.49,95.039 C 381.743,94.427 381.369,93.645 381.369,92.691 C 381.369,91.754 381.727,91.015 382.442,90.474 C 382.871,90.156 384.142,89.648 386.255,88.949 C 389.164,88.011 391.047,87.268 391.905,86.72 C 392.763,86.172 393.43,85.425 393.907,84.479 C 394.383,83.534 394.622,82.409 394.622,81.106 C 394.622,78.691 393.855,76.737 392.322,75.243 C 390.789,73.749 388.695,73.002 386.041,73.002 C 381.067,73.002 378.183,75.719 377.388,81.154 Z" marker-start="none" marker-end="none"/>
    <path d="M 398.875,81.154 L 402.356,81.822 C 402.562,80.042 403.126,78.719 404.048,77.853 C 404.969,76.987 406.193,76.553 407.719,76.553 C 409.244,76.553 410.424,76.931 411.259,77.686 C 412.093,78.441 412.51,79.398 412.51,80.558 C 412.51,81.559 412.152,82.338 411.437,82.894 C 410.945,83.275 409.753,83.752 407.862,84.324 C 405.128,85.166 403.301,85.881 402.379,86.469 C 401.458,87.057 400.743,87.844 400.234,88.829 C 399.726,89.815 399.471,90.935 399.471,92.19 C 399.471,94.352 400.163,96.107 401.545,97.458 C 402.928,98.808 404.843,99.484 407.289,99.484 C 408.831,99.484 410.186,99.206 411.353,98.65 C 412.522,98.094 413.416,97.347 414.036,96.41 C 414.655,95.472 415.084,94.129 415.323,92.381 L 411.89,91.809 C 411.572,94.574 410.071,95.956 407.385,95.957 C 405.86,95.956 404.723,95.65 403.977,95.039 C 403.23,94.427 402.856,93.645 402.856,92.691 C 402.856,91.754 403.214,91.015 403.929,90.474 C 404.358,90.156 405.629,89.648 407.742,88.949 C 410.651,88.011 412.534,87.268 413.392,86.72 C 414.25,86.172 414.917,85.425 415.394,84.479 C 415.87,83.534 416.109,82.409 416.109,81.106 C 416.109,78.691 415.342,76.737 413.809,75.243 C 412.276,73.749 410.182,73.002 407.528,73.002 C 402.554,73.002 399.67,75.719 398.875,81.154 Z" marker-start="none" marker-end="none"/>
    <path d="M 429.539,77.436 L 430.016,73.645 C 429.046,73.391 428.172,73.264 427.394,73.264 C 426.17,73.264 425.185,73.506 424.439,73.991 C 423.691,74.476 423.179,75.14 422.901,75.982 C 422.623,76.824 422.484,78.501 422.484,81.011 L 422.484,95.575 L 419.909,95.575 L 419.909,98.912 L 422.484,98.912 L 422.484,105.181 L 425.988,107.755 L 425.988,98.912 L 429.539,98.912 L 429.539,95.575 L 425.988,95.575 L 425.988,80.773 C 425.988,79.406 426.091,78.524 426.298,78.127 C 426.599,77.555 427.164,77.269 427.99,77.269 C 428.387,77.269 428.904,77.324 429.539,77.436 Z" marker-start="none" marker-end="none"/>
    <path d="M 447.834,76.72 C 446.657,75.497 445.433,74.576 444.163,73.955 C 442.891,73.336 441.572,73.026 440.206,73.026 C 438.044,73.026 436.32,73.677 435.033,74.98 C 433.746,76.284 433.102,78.04 433.102,80.249 C 433.102,81.71 433.404,83.005 434.008,84.134 C 434.612,85.262 435.439,86.143 436.487,86.779 C 437.536,87.414 439.125,87.884 441.255,88.186 C 444.115,88.599 446.212,89.091 447.547,89.663 L 447.571,90.76 C 447.571,92.493 447.261,93.708 446.642,94.407 C 445.768,95.424 444.425,95.932 442.613,95.932 C 440.976,95.932 439.753,95.595 438.942,94.919 C 438.132,94.244 437.536,92.977 437.155,91.118 L 433.698,91.69 C 434.191,94.407 435.188,96.386 436.69,97.625 C 438.192,98.865 440.341,99.484 443.138,99.484 C 445.315,99.484 447.023,99.075 448.262,98.257 C 449.502,97.438 450.285,96.425 450.61,95.218 C 450.936,94.01 451.099,92.246 451.099,89.926 L 451.099,84.205 C 451.099,80.2 451.175,77.678 451.325,76.637 C 451.477,75.596 451.774,74.583 452.219,73.598 L 448.548,73.598 C 448.183,74.472 447.945,75.513 447.834,76.72 Z M 447.547,86.303 C 446.26,85.667 444.345,85.127 441.803,84.682 C 440.325,84.427 439.292,84.137 438.704,83.812 C 438.116,83.486 437.659,83.026 437.333,82.429 C 437.008,81.834 436.845,81.146 436.845,80.367 C 436.845,79.16 437.218,78.194 437.965,77.471 C 438.712,76.748 439.745,76.387 441.064,76.387 C 442.319,76.387 443.459,76.713 444.484,77.364 C 445.509,78.016 446.276,78.886 446.785,79.974 C 447.293,81.063 447.547,82.648 447.547,84.73 L 447.547,86.303 Z M 437.059,103.87 L 437.059,108.756 L 440.73,108.756 L 440.73,103.87 L 437.059,103.87 Z M 444.353,103.87 L 444.353,108.756 L 448.024,108.756 L 448.024,103.87 L 444.353,103.87 Z" marker-start="none" marker-end="none"/>
    <path d="M 465.864,77.436 L 466.341,73.645 C 465.371,73.391 464.497,73.264 463.719,73.264 C 462.495,73.264 461.51,73.506 460.764,73.991 C 460.016,74.476 459.504,75.14 459.226,75.982 C 458.948,76.824 458.809,78.501 458.809,81.011 L 458.809,95.575 L 456.234,95.575 L 456.234,98.912 L 458.809,98.912 L 458.809,105.181 L 462.313,107.755 L 462.313,98.912 L 465.864,98.912 L 465.864,95.575 L 462.313,95.575 L 462.313,80.773 C 462.313,79.406 462.416,78.524 462.623,78.127 C 462.924,77.555 463.489,77.269 464.315,77.269 C 464.712,77.269 465.229,77.324 465.864,77.436 Z" marker-start="none" marker-end="none"/>
    <path d="M 478.461,77.436 L 478.938,73.645 C 477.968,73.391 477.094,73.264 476.316,73.264 C 475.092,73.264 474.107,73.506 473.361,73.991 C 472.613,74.476 472.101,75.14 471.823,75.982 C 471.545,76.824 471.406,78.501 471.406,81.011 L 471.406,95.575 L 468.831,95.575 L 468.831,98.912 L 471.406,98.912 L 471.406,105.181 L 474.91,107.755 L 474.91,98.912 L 478.461,98.912 L 478.461,95.575 L 474.91,95.575 L 474.91,80.773 C 474.91,79.406 475.013,78.524 475.22,78.127 C 475.521,77.555 476.086,77.269 476.912,77.269 C 477.309,77.269 477.826,77.324 478.461,77.436 Z" marker-start="none" marker-end="none"/>
    <path d="M 497.423,81.75 L 501.046,81.202 C 500.442,78.5 499.35,76.462 497.769,75.088 C 496.187,73.713 494.229,73.026 491.893,73.026 C 488.953,73.026 486.573,74.142 484.753,76.375 C 482.934,78.607 482.024,81.829 482.024,86.041 C 482.024,90.411 482.942,93.744 484.778,96.04 C 486.613,98.336 488.937,99.484 491.75,99.484 C 494.435,99.484 496.676,98.356 498.472,96.1 C 500.268,93.843 501.165,90.577 501.165,86.303 L 501.141,85.159 L 485.648,85.159 C 485.791,82.314 486.451,80.169 487.626,78.723 C 488.803,77.277 490.232,76.553 491.917,76.553 C 494.555,76.553 496.39,78.286 497.423,81.75 Z M 485.862,88.686 L 497.446,88.686 C 497.288,90.879 496.819,92.516 496.04,93.597 C 494.912,95.17 493.474,95.956 491.726,95.957 C 490.152,95.956 488.81,95.3 487.697,93.99 C 486.585,92.679 485.973,90.911 485.862,88.686 Z" marker-start="none" marker-end="none"/>
    <path d="M 506.944,73.598 L 506.944,98.912 L 510.115,98.912 L 510.115,95.313 C 510.877,96.711 511.81,97.756 512.916,98.447 C 514.019,99.139 515.287,99.484 516.717,99.484 C 517.829,99.484 518.858,99.265 519.804,98.829 C 520.749,98.391 521.512,97.82 522.092,97.113 C 522.672,96.406 523.105,95.488 523.392,94.359 C 523.678,93.231 523.821,91.499 523.821,89.163 L 523.821,73.598 L 520.292,73.598 L 520.292,88.996 C 520.292,90.855 520.134,92.214 519.816,93.072 C 519.498,93.93 519.001,94.594 518.326,95.062 C 517.651,95.532 516.868,95.766 515.978,95.766 C 514.294,95.766 512.952,95.138 511.95,93.883 C 510.949,92.628 510.448,90.474 510.448,87.423 L 510.448,73.598 L 506.944,73.598 Z" marker-start="none" marker-end="none"/>
   </g>
  </g>
  <g id="Group_2" fill-rule="nonzero" stroke-linejoin="miter" stroke="none" stroke-width="6.195" fill="#231f20" stroke-miterlimit="4">
   <g id="Group_3">
    <path d="M 33.744,14.992 L 33.744,49.936 L 37.535,49.936 L 37.535,32.607 L 51.765,49.936 L 56.913,49.936 L 44.876,35.777 L 57.438,14.992 L 52.432,14.992 L 42.23,32.679 L 37.535,27.101 L 37.535,14.992 L 33.744,14.992 Z" marker-start="none" marker-end="none"/>
    <path d="M 75.065,18.114 C 73.888,16.891 72.664,15.97 71.394,15.349 C 70.122,14.73 68.803,14.42 67.437,14.42 C 65.275,14.42 63.551,15.071 62.264,16.374 C 60.977,17.678 60.333,19.434 60.333,21.643 C 60.333,23.104 60.635,24.399 61.239,25.528 C 61.843,26.656 62.67,27.537 63.718,28.173 C 64.767,28.808 66.356,29.278 68.486,29.58 C 71.346,29.993 73.443,30.485 74.778,31.057 L 74.802,32.154 C 74.802,33.887 74.492,35.102 73.873,35.801 C 72.999,36.818 71.656,37.326 69.844,37.326 C 68.207,37.326 66.984,36.989 66.173,36.313 C 65.363,35.638 64.767,34.371 64.386,32.512 L 60.929,33.084 C 61.422,35.801 62.419,37.78 63.921,39.019 C 65.423,40.259 67.572,40.878 70.369,40.878 C 72.546,40.878 74.254,40.469 75.493,39.651 C 76.733,38.832 77.516,37.819 77.841,36.612 C 78.167,35.404 78.33,33.64 78.33,31.32 L 78.33,25.599 C 78.33,21.594 78.406,19.072 78.556,18.031 C 78.708,16.99 79.005,15.977 79.45,14.992 L 75.779,14.992 C 75.414,15.866 75.176,16.907 75.065,18.114 Z M 74.778,27.697 C 73.491,27.061 71.576,26.521 69.034,26.076 C 67.556,25.821 66.523,25.531 65.935,25.206 C 65.347,24.88 64.89,24.42 64.564,23.823 C 64.239,23.228 64.076,22.54 64.076,21.761 C 64.076,20.554 64.449,19.588 65.196,18.865 C 65.943,18.142 66.976,17.781 68.295,17.781 C 69.55,17.781 70.69,18.107 71.715,18.758 C 72.74,19.41 73.507,20.28 74.016,21.368 C 74.524,22.457 74.778,24.042 74.778,26.124 L 74.778,27.697 Z" marker-start="none" marker-end="none"/>
    <path d="M 85.253,14.992 L 85.253,40.306 L 88.424,40.306 L 88.424,36.707 C 89.186,38.105 90.119,39.15 91.225,39.841 C 92.328,40.533 93.596,40.878 95.026,40.878 C 96.138,40.878 97.167,40.659 98.113,40.223 C 99.058,39.785 99.821,39.214 100.401,38.507 C 100.981,37.8 101.414,36.882 101.701,35.753 C 101.987,34.625 102.13,32.893 102.13,30.557 L 102.13,14.992 L 98.601,14.992 L 98.601,30.39 C 98.601,32.249 98.443,33.608 98.125,34.466 C 97.807,35.324 97.31,35.988 96.635,36.456 C 95.96,36.926 95.177,37.16 94.287,37.16 C 92.603,37.16 91.261,36.532 90.259,35.277 C 89.258,34.022 88.757,31.868 88.757,28.817 L 88.757,14.992 L 85.253,14.992 Z" marker-start="none" marker-end="none"/>
    <path d="M 116.823,18.83 L 117.3,15.039 C 116.33,14.785 115.456,14.658 114.678,14.658 C 113.454,14.658 112.469,14.9 111.723,15.385 C 110.975,15.87 110.463,16.534 110.185,17.376 C 109.907,18.218 109.768,19.895 109.768,22.405 L 109.768,36.969 L 107.193,36.969 L 107.193,40.306 L 109.768,40.306 L 109.768,46.575 L 113.272,49.149 L 113.272,40.306 L 116.823,40.306 L 116.823,36.969 L 113.272,36.969 L 113.272,22.167 C 113.272,20.8 113.375,19.918 113.582,19.521 C 113.883,18.949 114.448,18.663 115.274,18.663 C 115.671,18.663 116.188,18.718 116.823,18.83 Z" marker-start="none" marker-end="none"/>
    <path d="M 120.267,27.649 C 120.267,32.02 121.185,35.317 123.021,37.541 C 124.856,39.766 127.179,40.878 129.992,40.878 C 132.757,40.878 135.07,39.766 136.929,37.541 C 138.788,35.317 139.718,32.107 139.718,27.911 C 139.718,23.367 138.804,19.981 136.977,17.757 C 135.149,15.532 132.821,14.42 129.992,14.42 C 127.211,14.42 124.895,15.536 123.044,17.769 C 121.193,20.001 120.267,23.295 120.267,27.649 Z M 123.867,27.649 C 123.867,24.376 124.463,21.94 125.655,20.344 C 126.847,18.746 128.324,17.947 130.088,17.947 C 131.74,17.947 133.159,18.754 134.343,20.367 C 135.526,21.98 136.118,24.408 136.118,27.649 C 136.118,30.907 135.522,33.334 134.33,34.931 C 133.139,36.528 131.661,37.326 129.897,37.326 C 128.228,37.326 126.807,36.524 125.63,34.919 C 124.455,33.315 123.867,30.891 123.867,27.649 Z" marker-start="none" marker-end="none"/>
    <path d="M 145.306,14.992 L 145.306,40.306 L 148.477,40.306 L 148.477,36.707 C 149.239,38.105 150.172,39.15 151.278,39.841 C 152.381,40.533 153.649,40.878 155.079,40.878 C 156.191,40.878 157.22,40.659 158.166,40.223 C 159.111,39.785 159.874,39.214 160.454,38.507 C 161.034,37.8 161.467,36.882 161.754,35.753 C 162.04,34.625 162.183,32.893 162.183,30.557 L 162.183,14.992 L 158.654,14.992 L 158.654,30.39 C 158.654,32.249 158.496,33.608 158.178,34.466 C 157.86,35.324 157.363,35.988 156.688,36.456 C 156.013,36.926 155.23,37.16 154.34,37.16 C 152.656,37.16 151.314,36.532 150.312,35.277 C 149.311,34.022 148.81,31.868 148.81,28.817 L 148.81,14.992 L 145.306,14.992 Z" marker-start="none" marker-end="none"/>
    <path d="M 180.869,26.219 L 184.444,26.6 C 184.634,24.677 185.068,23.18 185.743,22.107 C 186.418,21.034 187.384,20.173 188.639,19.521 C 189.894,18.87 191.309,18.543 192.882,18.543 C 195.139,18.543 196.891,19.096 198.138,20.2 C 199.386,21.305 200.01,22.739 200.009,24.502 C 200.01,25.536 199.783,26.437 199.329,27.208 C 198.877,27.979 198.194,28.61 197.28,29.103 C 196.366,29.596 194.392,30.287 191.357,31.177 C 188.655,31.971 186.732,32.774 185.588,33.584 C 184.444,34.395 183.554,35.424 182.918,36.671 C 182.282,37.918 181.965,39.328 181.965,40.902 C 181.965,43.73 182.878,46.042 184.706,47.838 C 186.533,49.634 188.997,50.532 192.095,50.532 C 194.225,50.532 196.088,50.111 197.685,49.269 C 199.282,48.427 200.521,47.218 201.403,45.645 C 202.285,44.072 202.758,42.221 202.822,40.092 L 199.175,39.758 C 198.984,42.03 198.305,43.714 197.137,44.811 C 195.969,45.908 194.328,46.456 192.214,46.456 C 190.069,46.456 188.433,45.976 187.304,45.014 C 186.176,44.053 185.612,42.809 185.612,41.283 C 185.612,39.87 186.025,38.773 186.851,37.994 C 187.678,37.216 189.537,36.429 192.429,35.634 C 195.257,34.855 197.244,34.18 198.388,33.608 C 200.136,32.718 201.455,31.546 202.345,30.092 C 203.235,28.638 203.68,26.902 203.68,24.884 C 203.68,22.881 203.211,21.058 202.273,19.413 C 201.336,17.769 200.06,16.518 198.448,15.659 C 196.835,14.801 194.893,14.372 192.62,14.372 C 189.076,14.372 186.251,15.437 184.146,17.566 C 182.04,19.696 180.948,22.58 180.869,26.219 Z" marker-start="none" marker-end="none"/>
    <path d="M 208.482,27.649 C 208.482,32.02 209.4,35.317 211.236,37.541 C 213.071,39.766 215.394,40.878 218.207,40.878 C 220.972,40.878 223.285,39.766 225.144,37.541 C 227.003,35.317 227.933,32.107 227.933,27.911 C 227.933,23.367 227.019,19.981 225.192,17.757 C 223.364,15.532 221.036,14.42 218.207,14.42 C 215.426,14.42 213.11,15.536 211.259,17.769 C 209.408,20.001 208.482,23.295 208.482,27.649 Z M 212.082,27.649 C 212.082,24.376 212.678,21.94 213.87,20.344 C 215.062,18.746 216.539,17.947 218.303,17.947 C 219.955,17.947 221.374,18.754 222.558,20.367 C 223.741,21.98 224.333,24.408 224.333,27.649 C 224.333,30.907 223.737,33.334 222.545,34.931 C 221.354,36.528 219.876,37.326 218.112,37.326 C 216.443,37.326 215.022,36.524 213.845,34.919 C 212.67,33.315 212.082,30.891 212.082,27.649 Z" marker-start="none" marker-end="none"/>
    <path d="M 233.426,14.992 L 233.426,49.936 L 236.93,49.936 L 236.93,14.992 L 233.426,14.992 Z" marker-start="none" marker-end="none"/>
    <path d="M 242.566,27.649 C 242.566,32.02 243.484,35.317 245.32,37.541 C 247.155,39.766 249.478,40.878 252.291,40.878 C 255.056,40.878 257.369,39.766 259.228,37.541 C 261.087,35.317 262.017,32.107 262.017,27.911 C 262.017,23.367 261.103,19.981 259.276,17.757 C 257.448,15.532 255.12,14.42 252.291,14.42 C 249.51,14.42 247.194,15.536 245.343,17.769 C 243.492,20.001 242.566,23.295 242.566,27.649 Z M 246.166,27.649 C 246.166,24.376 246.762,21.94 247.954,20.344 C 249.146,18.746 250.623,17.947 252.387,17.947 C 254.039,17.947 255.458,18.754 256.642,20.367 C 257.825,21.98 258.417,24.408 258.417,27.649 C 258.417,30.907 257.821,33.334 256.629,34.931 C 255.438,36.528 253.96,37.326 252.196,37.326 C 250.527,37.326 249.106,36.524 247.929,34.919 C 246.754,33.315 246.166,30.891 246.166,27.649 Z" marker-start="none" marker-end="none"/>
    <path d="M 275.447,18.83 L 275.924,15.039 C 274.954,14.785 274.08,14.658 273.302,14.658 C 272.078,14.658 271.093,14.9 270.347,15.385 C 269.599,15.87 269.087,16.534 268.809,17.376 C 268.531,18.218 268.392,19.895 268.392,22.405 L 268.392,36.969 L 265.817,36.969 L 265.817,40.306 L 268.392,40.306 L 268.392,46.575 L 271.896,49.149 L 271.896,40.306 L 275.447,40.306 L 275.447,36.969 L 271.896,36.969 L 271.896,22.167 C 271.896,20.8 271.999,19.918 272.206,19.521 C 272.507,18.949 273.072,18.663 273.898,18.663 C 274.295,18.663 274.812,18.718 275.447,18.83 Z" marker-start="none" marker-end="none"/>
    <path d="M 280.202,14.992 L 280.202,49.936 L 283.706,49.936 L 283.706,37.398 C 284.532,38.558 285.466,39.428 286.507,40.008 C 287.548,40.588 288.696,40.878 289.951,40.878 C 292.16,40.878 293.904,40.175 295.184,38.768 C 296.462,37.362 297.102,34.784 297.102,31.034 L 297.102,14.992 L 293.599,14.992 L 293.599,31.034 C 293.599,33.227 293.209,34.8 292.43,35.753 C 291.651,36.707 290.579,37.183 289.212,37.183 C 287.687,37.183 286.388,36.572 285.315,35.348 C 284.243,34.125 283.706,31.956 283.706,28.841 L 283.706,14.992 L 280.202,14.992 Z" marker-start="none" marker-end="none"/>
    <path d="M 317.541,14.992 L 317.541,18.71 C 316.731,17.28 315.777,16.208 314.68,15.492 C 313.584,14.777 312.344,14.42 310.962,14.42 C 309.325,14.42 307.927,14.86 306.767,15.743 C 305.606,16.625 304.832,17.741 304.443,19.092 C 304.054,20.443 303.859,22.285 303.859,24.622 L 303.859,40.306 L 307.362,40.306 L 307.362,26.267 C 307.362,23.66 307.493,21.917 307.756,21.034 C 308.018,20.153 308.503,19.446 309.21,18.913 C 309.917,18.381 310.724,18.114 311.629,18.114 C 313.314,18.114 314.697,18.806 315.777,20.188 C 316.699,21.38 317.16,23.565 317.16,26.743 L 317.16,40.306 L 320.687,40.306 L 320.687,14.992 L 317.541,14.992 Z" marker-start="none" marker-end="none"/>
    <path d="M 327.658,14.992 L 327.658,40.306 L 330.829,40.306 L 330.829,36.469 C 331.639,38.248 332.382,39.428 333.057,40.008 C 333.733,40.588 334.491,40.878 335.333,40.878 C 336.51,40.878 337.71,40.417 338.933,39.496 L 337.741,35.515 C 336.867,36.135 336.017,36.445 335.19,36.445 C 334.444,36.445 333.76,36.182 333.141,35.658 C 332.521,35.134 332.084,34.403 331.83,33.465 C 331.385,31.828 331.162,30.089 331.162,28.245 L 331.162,14.992 L 327.658,14.992 Z" marker-start="none" marker-end="none"/>
    <path d="M 342.447,14.992 L 342.447,40.306 L 345.618,40.306 L 345.618,36.707 C 346.38,38.105 347.313,39.15 348.419,39.841 C 349.522,40.533 350.79,40.878 352.22,40.878 C 353.332,40.878 354.361,40.659 355.307,40.223 C 356.252,39.785 357.015,39.214 357.595,38.507 C 358.175,37.8 358.608,36.882 358.895,35.753 C 359.181,34.625 359.324,32.893 359.324,30.557 L 359.324,14.992 L 355.795,14.992 L 355.795,30.39 C 355.795,32.249 355.637,33.608 355.319,34.466 C 355.001,35.324 354.504,35.988 353.829,36.456 C 353.154,36.926 352.371,37.16 351.481,37.16 C 349.797,37.16 348.455,36.532 347.453,35.277 C 346.452,34.022 345.951,31.868 345.951,28.817 L 345.951,14.992 L 342.447,14.992 Z" marker-start="none" marker-end="none"/>
   </g>
  </g>
 </g>
</svg>
